<?xml version="1.0" encoding="utf-8"?>
<!-- Generator: Adobe Illustrator 15.0.0, SVG Export Plug-In . SVG Version: 6.00 Build 0)  -->
<!DOCTYPE svg PUBLIC "-//W3C//DTD SVG 1.1//EN" "http://www.w3.org/Graphics/SVG/1.1/DTD/svg11.dtd">
<svg version="1.1" id="Layer_1" xmlns="http://www.w3.org/2000/svg" xmlns:xlink="http://www.w3.org/1999/xlink" x="0px" y="0px"
	 width="140px" height="140px" viewBox="0 0 140 140" enable-background="new 0 0 140 140" xml:space="preserve">
<text transform="matrix(1 0 0 1 -594.624 53.4707)" font-family="'Voyage'" font-size="110.2164">site</text>
<text transform="matrix(1 0 0 1 -594.624 89.0244)" font-family="'Voyage'" font-size="45.0347">en cours </text>
<g>
	<path fill="#FFFFFF" d="M61.21,49.757c-1.127,4.779,0.591,4.887,1.773,3.061c1.395-2.148,2.094-3.813,3.812-7.893
		c0.805-1.934,1.234-2.309,1.234-1.289c0,0.322-0.268,1.235-0.751,2.417c-1.503,3.651-2.093,4.94-3.758,7.571
		c-3.222,5.262-9.129,4.403-6.391-6.767l1.236-4.886c2.576-9.45,1.932-11.652-0.055-9.772c-2.041,1.934-4.135,5.531-5.478,10.095
		l-0.323,1.235c-0.053,0.107-0.107,0.268-0.107,0.376l-0.215,0.859c-1.235,4.886-2.738,12.029-2.846,12.726
		c0,0-0.215,0.054-0.537,0.054c-2.738,0.053-4.403-1.289-2.953-7.303l2.201-8.27c2.47-9.451,2.04-11.653,0.054-9.773
		c-2.095,1.987-4.296,5.691-5.638,10.417c-0.054,0.107-0.054,0.162-0.054,0.268c-0.107,0.322-0.215,0.698-0.268,1.02l-0.215,0.859
		l-3.168,12.566c0,0-0.161,0-0.483-0.054c-2.685-0.268-3.92-1.235-2.095-8.753c1.503-6.283,1.772-7.679,2.417-10.15
		c1.934-7.625,2.148-10.095,2.148-10.095s0.161,0,0.376-0.054c3.114-0.483,4.779,1.342,3.061,7.732
		c-0.054,0.107-0.054,0.215-0.107,0.269c1.128-1.987,2.417-3.759,3.705-4.94c3.543-3.168,7.142-2.255,6.121,5.8
		c1.127-2.363,2.578-4.457,4.081-5.8c4.188-3.759,8.646-1.825,5.155,11.008C62.016,46.267,61.855,46.912,61.21,49.757z"/>
	<path fill="#FFFFFF" d="M79.411,29.889c-3.489-0.268-5.745,4.243-7.732,12.62c-2.362,9.934-1.665,12.833,0.323,12.726
		c1.664-0.107,3.65-4.779,5.423-11.116c-0.645-0.59-1.288-1.289-1.718-2.202c-2.311-4.402-0.967-9.934,3.275-10.954
		c3.489-0.859,6.121,2.148,3.437,12.189l-0.322,1.128c0.859-0.322,1.826-0.913,2.846-1.934c1.559-1.449,2.041-1.665,1.666-0.752
		c-0.107,0.269-0.699,1.074-1.611,1.987c-1.074,1.02-2.148,1.557-3.222,1.718c-2.578,7.411-7.25,11.169-10.363,11.277
		c-3.008,0.107-7.519-2.846-4.511-14.337c2.309-8.699,6.873-13.854,12.671-13.317C81.291,29.03,80.325,29.997,79.411,29.889z
		 M77.747,42.992c2.094-7.947,2.523-11.116,0.912-10.793c-2.522,0.537-3.974,5.638-1.985,9.289
		C76.995,42.079,77.317,42.562,77.747,42.992z"/>
	<path fill="#FFFFFF" d="M86.015,57.276c-2.739-0.268-3.92-1.235-2.094-8.753c1.503-6.283,1.771-7.679,2.417-10.149
		c1.933-7.625,2.147-10.095,2.147-10.095s0.107,0,0.377-0.054c3.115-0.483,4.725,1.342,3.007,7.732c0,0.054-0.054,0.107-0.054,0.161
		c1.074-1.933,2.311-3.651,3.598-4.833c4.189-3.759,8.646-1.825,5.156,11.008c-1.129,3.973-1.289,4.618-1.935,7.463
		c-1.126,4.779,0.591,4.887,1.773,3.061c1.396-2.148,2.094-3.813,3.812-7.893c0.805-1.934,1.234-2.309,1.234-1.289
		c0,0.322-0.269,1.235-0.751,2.417c-1.504,3.651-2.094,4.94-3.758,7.571c-3.223,5.262-9.129,4.403-6.391-6.767l1.234-4.886
		c2.576-9.45,1.931-11.652-0.055-9.772c-2.094,1.987-4.189,5.691-5.531,10.364l-0.322,1.342l-0.322,1.182
		c-1.234,4.779-2.847,11.331-3.061,12.243C86.499,57.329,86.283,57.329,86.015,57.276z"/>
	<path fill="#FFFFFF" d="M63.919,78.093c-2.658,3.149-6.989,4.035-9.056,1.377c-2.362-3.149,0.295-7.186,3.544-6.792
		c4.823,0.689,8.071-2.952,5.709-6.89c-2.854-4.725-11.812,0.098-17.128,19.687c-4.921,18.015,0.886,24.609,5.709,22.641
		c4.43-1.87,8.859-6.693,13.978-18.211c1.674-3.544,2.264-4.232,2.264-2.362c0,0.591-0.394,2.265-1.378,4.43
		c-4.527,10.041-8.563,15.947-15.65,18.802c-9.942,3.938-19.786-2.56-13.683-25.791C44.527,60.964,61.95,58.307,65.79,65
		C68.053,68.938,67.168,74.253,63.919,78.093z"/>
	<path fill="#FFFFFF" d="M94.041,88.724c2.461,0,5.216-1.182,8.071-3.938c2.757-2.657,3.643-3.052,3.051-1.378
		c-0.294,0.491-1.279,1.969-3.051,3.642c-2.854,2.658-6.103,3.643-9.056,3.347c-4.43,6.989-10.04,12.502-16.046,16.932
		c-9.056,6.792-15.159,5.119-10.139-15.356c1.182-4.527,3.446-13.78,5.216-21.064c3.25-12.699,6.793-12.01,10.632-9.844
		c0.787,0.492,1.182,0.787,1.182,0.787c-0.59,2.362-5.118,18.407-9.549,36.52c-2.165,8.761-0.886,9.449,2.363,7.186
		c3.346-2.362,6.496-7.58,10.336-17.817c-1.183-0.983-2.166-2.264-2.855-3.74c-4.33-8.071,0.099-22.05,7.975-23.92
		c7.875-1.969,10.729,3.445,7.776,14.372C98.471,79.864,96.502,84.589,94.041,88.724z M87.839,85.868l1.674-4.921
		c4.627-13.978,4.528-19.196,1.969-18.604c-4.527,0.984-9.154,14.175-5.512,20.868C86.462,84.195,87.15,85.081,87.839,85.868z"/>
</g>
<text transform="matrix(1 0 0 1 -159.4355 25.5361)" fill="#FFFFFF" font-family="'Voyage'" font-size="67.1178">mon</text>
<text transform="matrix(1 0 0 1 -159.4355 93.8965)" fill="#FFFFFF" font-family="'Voyage'" font-size="123.0493">cv</text>
</svg>
