<?xml version="1.0" encoding="utf-8"?>
<!-- Generator: Adobe Illustrator 15.0.0, SVG Export Plug-In . SVG Version: 6.00 Build 0)  -->
<!DOCTYPE svg PUBLIC "-//W3C//DTD SVG 1.1//EN" "http://www.w3.org/Graphics/SVG/1.1/DTD/svg11.dtd">
<svg version="1.1" id="Layer_1" xmlns="http://www.w3.org/2000/svg" xmlns:xlink="http://www.w3.org/1999/xlink" x="0px" y="0px"
	 width="140px" height="140px" viewBox="0 0 140 140" enable-background="new 0 0 140 140" xml:space="preserve">
<text transform="matrix(1 0 0 1 -594.624 53.4707)" font-family="'Voyage'" font-size="110.2164">site</text>
<text transform="matrix(1 0 0 1 -594.624 89.0244)" font-family="'Voyage'" font-size="45.0347">en cours </text>
<g enable-background="new    ">
	<path fill="#FFFFFF" stroke="#FFFFFF" stroke-width="0.179" stroke-miterlimit="10" d="M61.253,57.292
		c0,1.107,0.692,1.626,1.487,1.626c0.762,0,1.455-0.657,1.523-1.626h0.104c-0.07,1.003-0.935,2.768-2.978,2.768
		c-1.8,0-2.838-1.419-2.838-3.841v-10.28c0-2.317-1.106-3.598-3.045-3.598c-2.492,0-3.981,2.215-3.981,4.569v12.701h2.146v0.104
		h-6.991v-0.104h2.18V45.939c0-2.317-1.106-3.598-3.045-3.598c-2.492,0-3.981,2.215-3.981,4.569v12.701h2.146v0.104H36.99v-0.104
		h2.181v-17.34h-2.18v-0.104h4.845v3.081c0.658-1.661,2.389-3.426,5.053-3.426c2.491,0,4.014,1.488,4.464,3.98
		c0.762-2.354,2.562-3.98,5.228-3.98c3.253,0,4.672,2.596,4.672,6.576L61.253,57.292L61.253,57.292z"/>
	<path fill="#FFFFFF" stroke="#FFFFFF" stroke-width="0.179" stroke-miterlimit="10" d="M73.4,60.026
		c-4.603,0-7.994-3.98-7.994-9.033c0-5.089,3.703-9.207,8.17-9.207c4.602,0,7.994,3.946,7.994,9
		C81.569,55.874,77.865,60.026,73.4,60.026z M73.574,41.925c-3.6,0-5.295,3.807-5.295,8.895c0,5.054,1.696,9.067,5.122,9.067
		c3.6,0,5.297-3.842,5.297-8.929C78.697,45.905,77,41.925,73.574,41.925z"/>
	<path fill="#FFFFFF" stroke="#FFFFFF" stroke-width="0.179" stroke-miterlimit="10" d="M98.908,57.292
		c0,1.107,0.693,1.626,1.487,1.626c0.762,0,1.454-0.657,1.522-1.626h0.103c-0.069,1.003-0.932,2.768-2.974,2.768
		c-1.802,0-2.839-1.419-2.839-3.841v-10.28c0-2.317-1.315-3.598-3.427-3.598c-2.629,0-4.293,2.456-4.293,4.811v12.459h2.146v0.104
		h-6.992v-0.104h2.182v-17.34h-2.182v-0.104h4.846v3.322c0.622-1.696,2.526-3.669,5.365-3.669c3.427,0,5.053,2.597,5.053,6.576
		v8.896H98.908z"/>
</g>
<g enable-background="new    ">
	<path fill="#FFFFFF" stroke="#FFFFFF" stroke-width="0.225" stroke-miterlimit="10" d="M63.725,96.621h0.319
		c-0.637,6.06-5.501,10.445-13.555,10.445c-10.604,0-18.019-9.328-18.019-20.971c0-11.642,8.132-21.289,18.817-21.289
		c8.611,0,12.518,5.183,12.518,9.969c0,2.63-1.754,4.781-4.066,4.781c-2.551,0-4.226-1.833-4.226-4.067
		c0-2.632,1.993-4.067,3.987-4.067c1.276,0,2.153,0.638,2.392,0.638c0.239,0,0.399-0.159,0.399-0.399
		c0-1.671-2.792-6.456-9.808-6.456c-8.292,0-13.395,7.813-13.395,20.491c0,11.643,5.582,20.254,14.193,20.254
		C58.303,105.95,63.007,102.522,63.725,96.621z"/>
	<path fill="#FFFFFF" stroke="#FFFFFF" stroke-width="0.225" stroke-miterlimit="10" d="M92.988,66.084v-0.239h13.557v0.239h-0.318
		c-3.748,0-5.822,4.066-7.335,8.771L87.33,106.269h-2.949l-15.87-40.185h-4.466v-0.239h16.187v0.239h-5.264l13.794,35.4
		l9.807-26.709c1.753-4.707,0.637-8.691-5.023-8.691H92.988z"/>
</g>
<text transform="matrix(1 0 0 1 -260.9355 25.5361)" font-family="'Voyage'" font-size="67.1178">mon</text>
<text transform="matrix(1 0 0 1 -260.9355 93.8965)" font-family="'Voyage'" font-size="123.0493">cv</text>
<text transform="matrix(1 0 0 1 -356.9355 25.5361)" font-family="'Voyage'" font-size="67.1178">mon</text>
<text transform="matrix(1 0 0 1 -356.9355 93.8965)" font-family="'Voyage'" font-size="123.0493">cv</text>
</svg>
