<?xml version="1.0" encoding="utf-8"?>
<!-- Generator: Adobe Illustrator 15.0.0, SVG Export Plug-In . SVG Version: 6.00 Build 0)  -->
<!DOCTYPE svg PUBLIC "-//W3C//DTD SVG 1.1//EN" "http://www.w3.org/Graphics/SVG/1.1/DTD/svg11.dtd">
<svg version="1.1" id="Layer_1" xmlns="http://www.w3.org/2000/svg" xmlns:xlink="http://www.w3.org/1999/xlink" x="0px" y="0px"
	 width="140px" height="140px" viewBox="0 0 140 140" enable-background="new 0 0 140 140" xml:space="preserve">
<text transform="matrix(1 0.0071 -0.0071 1 -343.2437 33.8682)" font-family="'Voyage'" font-size="71.3015">édit</text>
<text transform="matrix(1 0.0071 -0.0071 1 -343.6294 88.3184)" font-family="'Voyage'" font-size="82.9474">ion</text>
<g>
	<path fill="#FFFFFF" d="M44.067,54.866c-0.332,6.5,2.9,9.261,6.105,7.801c2.576-1.238,4.991-3.9,8.004-10.554
		c0.984-2.046,1.33-2.443,1.322-1.359c-0.002,0.342-0.238,1.31-0.816,2.562c-2.666,5.799-4.857,9.092-8.92,10.888
		c-6.867,3.032-13.394-1.692-9.761-15.072c3.75-13.893,15.625-15.406,17.765-11.455C59.906,41.687,51.744,50.185,44.067,54.866z
		 M44.249,53.44c7.22-4.626,10.244-12.762,9.121-15.337c-1.291-2.919-5.134,0.02-8.295,11.35
		C44.665,50.934,44.372,52.187,44.249,53.44z M47.125,33.895l3.969-4.592c1.727-2.041,3.55-1.915,4.283-0.598
		c0.789,1.432-0.021,2.966-1.68,3.582c-2.173,0.783-6.233,2.181-6.233,2.181L47.125,33.895z"/>
	<path fill="#FFFFFF" d="M72.258,37.154l0.234-0.911c2.111-8.085,2.358-10.707,2.358-10.707s0.114,0.001,0.399-0.054
		c3.94-0.542,5.009,1.576,3.191,8.293c-0.351,1.196-0.761,2.676-1.172,4.384c-0.763,2.961-4.394,16.283-5.1,19.188
		c-1.176,5.068,0.648,5.195,1.918,3.265c1.498-2.271,2.253-4.034,4.108-8.356c0.928-2.048,1.33-2.444,1.322-1.36
		c-0.002,0.343-0.295,1.311-0.816,2.562c-1.625,3.867-2.262,5.232-4.05,8.015c-2.828,4.486-7.447,4.283-7.572-2.108
		c-0.638,1.537-1.274,2.73-1.964,3.581c-3.914,4.821-10.495-0.247-6.862-13.683C61.709,36.452,69.254,34.337,72.258,37.154z
		 M68.098,52.583l3.81-14.234c-2.031-3.151-5.651,0.587-8.637,11.234c-2.811,10.248-0.562,14.827,1.337,12.445
		c1.036-1.305,2.256-4.376,3.372-8.932L68.098,52.583z"/>
	<path fill="#FFFFFF" d="M79.892,46.506c1.76-6.718,4.097-6.587,5.857-5.377c0.51,0.346,0.85,0.633,0.85,0.633
		c-0.117,0.456-2.574,8.938-4.275,15.657c-1.291,5.068,0.648,5.195,1.916,3.265c1.499-2.271,2.254-4.034,4.111-8.356
		c0.927-2.047,1.328-2.443,1.32-1.359c-0.003,0.342-0.293,1.31-0.816,2.561c-1.625,3.868-2.262,5.232-4.051,8.015
		c-3.461,5.566-9.839,3.981-6.788-7.862C78.425,52.144,79.188,49.068,79.892,46.506z M84.003,37.922
		c-1.991-0.698-2.834-2.587-1.91-4.064c0.923-1.534,3.324-2.144,5.316-1.446c1.934,0.699,2.832,2.587,1.852,4.121
		C88.337,38.068,85.938,38.621,84.003,37.922z"/>
	<path fill="#FFFFFF" d="M91.935,37.351c0.285,0.002,0.57-0.053,0.746-0.451c1.408-5.581,1.594-7.576,1.594-7.576
		s0.17,0.001,0.4-0.054c3.653-0.487,4.836,1.688,3.426,7.383c-0.117,0.683,0.109,0.741,0.681,0.747l0.285,0.001
		c2.109,0.015,2.394,0.131,2.106,0.471c-0.287,0.34-1.26,0.562-2.229,0.555l-0.514-0.003c-0.57-0.004-0.799,0.051-0.975,0.62
		c-1.054,3.872-3.865,14.119-4.98,18.448c-1.291,5.067,0.705,5.195,1.916,3.265c1.5-2.271,2.254-4.035,4.111-8.356
		c0.927-2.048,1.329-2.444,1.321-1.36c-0.003,0.343-0.294,1.311-0.817,2.562c-1.624,3.867-2.262,5.231-4.049,8.014
		c-3.463,5.566-9.84,3.98-6.789-7.863c1.35-5.296,2.516-8.881,3.749-13.721l0.235-0.968c0.061-0.627-0.11-0.685-0.566-0.688
		l-0.285-0.002c-2.11-0.015-2.395-0.131-2.107-0.472c0.287-0.34,1.26-0.561,2.229-0.554L91.935,37.351z"/>
	<path fill="#FFFFFF" d="M41.852,86.834c2.046-7.816,4.766-7.663,6.812-6.254c0.594,0.401,0.991,0.736,0.991,0.736
		c-0.136,0.529-2.994,10.396-4.974,18.214c-1.502,5.895,0.753,6.043,2.229,3.798c1.745-2.642,2.622-4.692,4.781-9.72
		c1.08-2.382,1.547-2.845,1.538-1.583c-0.002,0.397-0.343,1.524-0.95,2.979c-1.891,4.5-2.632,6.086-4.712,9.323
		c-4.027,6.476-11.446,4.63-7.897-9.148C40.145,93.392,41.034,89.814,41.852,86.834z M46.634,76.848
		c-2.317-0.812-3.297-3.01-2.223-4.727c1.075-1.784,3.867-2.495,6.183-1.682c2.25,0.813,3.296,3.01,2.156,4.792
		C51.675,77.017,48.884,77.66,46.634,76.848z"/>
	<path fill="#FFFFFF" d="M67.416,75.139c-4.312-0.363-7.137,5.19-9.667,15.523c-3.006,12.257-2.17,15.846,0.287,15.731
		c2.057-0.119,4.553-5.875,6.799-13.689c-0.791-0.735-1.582-1.603-2.104-2.735c-2.814-5.461-1.107-12.283,4.144-13.508
		c4.321-1.031,7.546,2.709,4.14,15.094l-0.408,1.39c1.065-0.391,2.265-1.112,3.534-2.362c1.937-1.78,2.536-2.041,2.063-0.917
		c-0.135,0.331-0.872,1.321-2.009,2.441c-1.336,1.252-2.668,1.906-3.996,2.096c-3.25,9.134-9.057,13.738-12.906,13.844
		c-3.717,0.107-9.266-3.584-5.449-17.756c2.931-10.729,8.616-17.06,15.778-16.346C69.746,74.092,68.542,75.277,67.416,75.139z
		 M65.243,91.314c2.657-9.803,3.217-13.714,1.223-13.33c-3.124,0.642-4.96,6.932-2.537,11.463
		C64.323,90.178,64.716,90.778,65.243,91.314z"/>
	<path fill="#FFFFFF" d="M75.336,109.038c-3.381-0.355-4.832-1.561-2.51-10.835c1.912-7.75,2.256-9.475,3.075-12.52
		c2.455-9.406,2.743-12.455,2.743-12.455s0.133,0,0.464-0.063c3.854-0.57,5.828,1.7,3.648,9.581c0,0.066-0.066,0.133-0.068,0.199
		c1.346-2.379,2.886-4.491,4.488-5.939c5.21-4.609,10.701-2.182,6.273,13.648c-1.428,4.899-1.633,5.694-2.453,9.206
		c-1.436,5.895,0.687,6.043,2.162,3.797c1.744-2.642,2.622-4.691,4.782-9.72c1.013-2.382,1.546-2.843,1.538-1.582
		c-0.004,0.398-0.344,1.524-0.951,2.979c-1.891,4.5-2.631,6.086-4.712,9.322c-4.026,6.476-11.319,5.361-7.836-8.416l1.569-6.026
		c3.268-11.656,2.49-14.383,0.018-12.078c-2.605,2.437-5.225,6.996-6.924,12.758l-0.412,1.655l-0.408,1.457
		c-1.568,5.895-3.617,13.977-3.89,15.102C75.934,109.108,75.668,109.106,75.336,109.038z"/>
</g>
<text transform="matrix(1 0 0 1 -594.624 53.4707)" font-family="'Voyage'" font-size="110.2164">site</text>
<text transform="matrix(1 0 0 1 -594.624 89.0244)" font-family="'Voyage'" font-size="45.0347">en cours </text>
<text transform="matrix(1 0 0 1 -461.1016 20.8691)" font-family="'Voyage'" font-size="67.1178">mon</text>
<text transform="matrix(1 0 0 1 -461.1016 89.2305)" font-family="'Voyage'" font-size="123.0493">cv</text>
</svg>
