<?xml version="1.0" encoding="utf-8"?>
<!-- Generator: Adobe Illustrator 15.0.0, SVG Export Plug-In . SVG Version: 6.00 Build 0)  -->
<!DOCTYPE svg PUBLIC "-//W3C//DTD SVG 1.1//EN" "http://www.w3.org/Graphics/SVG/1.1/DTD/svg11.dtd">
<svg version="1.1" id="Layer_1" xmlns="http://www.w3.org/2000/svg" xmlns:xlink="http://www.w3.org/1999/xlink" x="0px" y="0px"
	 width="140px" height="140px" viewBox="0 0 140 140" enable-background="new 0 0 140 140" xml:space="preserve">
<text transform="matrix(1 0.0071 -0.0071 1 -343.2437 33.8682)" font-family="'Voyage'" font-size="71.3015">édit</text>
<text transform="matrix(1 0.0071 -0.0071 1 -343.6294 88.3184)" font-family="'Voyage'" font-size="82.9474">ion</text>
<text transform="matrix(1 0 0 1 -594.624 53.4707)" font-family="'Voyage'" font-size="110.2164">site</text>
<text transform="matrix(1 0 0 1 -594.624 89.0244)" font-family="'Voyage'" font-size="45.0347">en cours </text>
<text transform="matrix(1 0 0 1 -461.1016 20.8691)" font-family="'Voyage'" font-size="67.1178">mon</text>
<text transform="matrix(1 0 0 1 -461.1016 89.2305)" font-family="'Voyage'" font-size="123.0493">cv</text>
<path fill="#FFFFFF" stroke="#FFFFFF" stroke-width="0.1938" stroke-miterlimit="10" d="M55.444,62.345
	c0-0.123-0.082-0.204-0.204-0.204c-0.123,0-0.571,0.326-1.223,0.326c-1.019,0-2.037-0.733-2.037-2.078
	c0-1.142,0.856-2.079,2.159-2.079c1.181,0,2.078,0.977,2.078,2.323c0,2.445-2.648,5.378-7.008,5.378
	c-5.46,0-9.453-4.767-9.453-10.716c0-5.949,3.912-10.879,9.332-10.879c4.115,0,7.049,2.159,7.049,5.338
	c0,7.211-12.346,4.156-12.346,10.837c0,2.812,2.281,5.216,6.03,5.216C53.407,65.809,55.444,63.201,55.444,62.345z M43.139,55.499
	c0,1.59,0.123,2.812,0.408,4.034c1.141-4.237,9.29-3.585,9.29-9.738c0-3.016-1.344-5.256-3.749-5.256
	C45.258,44.539,43.139,49.55,43.139,55.499z M44.769,40.016l-0.04-0.122c3.218-1.425,5.5-2.934,7.375-3.749
	c0.123-0.041,0.244-0.081,0.408-0.081c0.204,0,0.367,0.122,0.367,0.367c0,0.204-0.245,0.408-0.489,0.489
	C50.515,37.693,47.988,38.509,44.769,40.016z"/>
<path fill="#FFFFFF" stroke="#FFFFFF" stroke-width="0.1938" stroke-miterlimit="10" d="M59.68,55.459
	c0-5.991,3.953-11.043,9.208-11.043c2.688,0,4.686,1.426,5.583,3.342V37.205h-2.647v-0.122h5.663v25.67
	c0,1.303,0.814,1.915,1.752,1.915c0.896,0,1.712-0.774,1.793-1.915h0.123c-0.084,1.181-1.104,3.258-3.506,3.258
	c-1.834,0-2.934-1.262-3.178-3.666c-0.896,2.038-3.018,3.666-5.95,3.666C63.103,66.014,59.68,61.408,59.68,55.459z M74.471,60.225
	V49.877c0-3.137-2.037-5.012-4.889-5.012c-4.237,0-6.52,4.4-6.52,10.39c0,5.95,2.283,10.187,6.316,10.187
	C72.434,65.441,74.471,63.444,74.471,60.225z"/>
<path fill="#FFFFFF" stroke="#FFFFFF" stroke-width="0.1938" stroke-miterlimit="10" d="M87.668,65.483h2.527v0.123h-8.231v-0.123
	h2.567V45.069h-2.567v-0.123h5.704V65.483z M85.999,41.036c-1.142,0-1.955-0.856-1.955-2.038c0-1.222,0.896-2.119,1.955-2.119
	c1.181,0,1.997,0.856,1.997,2.078C87.996,40.138,87.1,41.036,85.999,41.036z"/>
<path fill="#FFFFFF" stroke="#FFFFFF" stroke-width="0.1938" stroke-miterlimit="10" d="M93.047,44.946v-4.237l3.098-1.549v5.785
	h6.722v0.123h-6.722v15.158c0,3.016,1.222,4.564,3.828,4.564c1.508,0,2.976-1.06,3.18-2.607h0.121
	c-0.203,1.916-2.321,3.831-4.891,3.831c-3.707,0-5.337-2.446-5.337-6.154V45.07h-2.647v-0.123L93.047,44.946L93.047,44.946z"/>
<path fill="#FFFFFF" stroke="#FFFFFF" stroke-width="0.225" stroke-miterlimit="10" d="M40.848,101.918h3.334v0.162H33.319v-0.162
	h3.387V74.977h-3.387v-0.162h7.528L40.848,101.918L40.848,101.918z M38.644,69.65c-1.506,0-2.582-1.129-2.582-2.688
	c0-1.612,1.183-2.796,2.582-2.796c1.56,0,2.635,1.13,2.635,2.742C41.278,68.469,40.095,69.65,38.644,69.65z"/>
<path fill="#FFFFFF" stroke="#FFFFFF" stroke-width="0.225" stroke-miterlimit="10" d="M60.424,102.562
	c-7.152,0-12.422-6.185-12.422-14.035c0-7.906,5.755-14.307,12.692-14.307c7.152,0,12.423,6.131,12.423,13.981
	C73.117,96.109,67.362,102.562,60.424,102.562z M60.694,74.438c-5.593,0-8.228,5.916-8.228,13.82c0,7.852,2.635,14.09,7.958,14.09
	c5.593,0,8.229-5.971,8.229-13.873C68.652,80.621,66.018,74.438,60.694,74.438z"/>
<path fill="#FFFFFF" stroke="#FFFFFF" stroke-width="0.225" stroke-miterlimit="10" d="M102.268,98.314
	c0,1.721,1.074,2.527,2.312,2.527c1.182,0,2.258-1.021,2.365-2.527h0.16c-0.105,1.559-1.451,4.303-4.625,4.303
	c-2.795,0-4.408-2.205-4.408-5.969V80.676c0-3.604-2.045-5.593-5.324-5.593c-4.087,0-6.668,3.817-6.668,7.476v19.361h3.334v0.161
	H78.552v-0.161h3.39V74.977h-3.39v-0.162h7.528v5.162c0.967-2.635,3.926-5.701,8.336-5.701c5.324,0,7.852,4.033,7.852,10.22V98.314
	L102.268,98.314z"/>
<rect x="-159.524" y="26.637" fill="none" width="88.38" height="110.52"/>
<text transform="matrix(1 0 0 1 -159.5234 63.4277)" font-family="'NarzissDrops'" font-size="52.56">édit</text>
<text transform="matrix(1 0 0 1 -159.5234 107.3486)" font-family="'NarzissDrops'" font-size="59.76">ion</text>
</svg>
