<?xml version="1.0" encoding="utf-8"?>
<!-- Generator: Adobe Illustrator 15.0.0, SVG Export Plug-In . SVG Version: 6.00 Build 0)  -->
<!DOCTYPE svg PUBLIC "-//W3C//DTD SVG 1.1//EN" "http://www.w3.org/Graphics/SVG/1.1/DTD/svg11.dtd">
<svg version="1.1" id="Layer_1" xmlns="http://www.w3.org/2000/svg" xmlns:xlink="http://www.w3.org/1999/xlink" x="0px" y="0px"
	 width="140px" height="140px" viewBox="0 0 140 140" enable-background="new 0 0 140 140" xml:space="preserve">
<g enable-background="new    ">
	<path fill="#FFFFFF" stroke="#FFFFFF" stroke-width="0.1836" stroke-miterlimit="10" d="M43.659,61.327h2.063v0.1h-6.721v-0.1
		h2.096V44.659h-2.096v-0.1h4.658V61.327z M42.295,41.365c-0.932,0-1.596-0.699-1.596-1.663c0-0.998,0.731-1.73,1.596-1.73
		c0.965,0,1.631,0.7,1.631,1.698C43.924,40.633,43.193,41.365,42.295,41.365z"/>
	<path fill="#FFFFFF" stroke="#FFFFFF" stroke-width="0.1836" stroke-miterlimit="10" d="M46.719,53.142
		c0-4.89,3.227-9.016,7.519-9.016c2.195,0,3.826,1.164,4.558,2.728v-8.617h-2.163v-0.1h4.625v20.959c0,1.066,0.665,1.563,1.43,1.563
		c0.732,0,1.398-0.632,1.464-1.563h0.1c-0.067,0.965-0.898,2.662-2.861,2.662c-1.498,0-2.396-1.031-2.595-2.994
		c-0.732,1.663-2.463,2.994-4.856,2.994C49.513,61.759,46.719,58,46.719,53.142z M58.795,57.035v-8.45
		c0-2.561-1.664-4.091-3.993-4.091c-3.459,0-5.323,3.593-5.323,8.484c0,4.856,1.863,8.318,5.156,8.318
		C57.131,61.293,58.795,59.663,58.795,57.035z"/>
	<path fill="#FFFFFF" stroke="#FFFFFF" stroke-width="0.1836" stroke-miterlimit="10" d="M78.056,58.765
		c0-0.1-0.067-0.167-0.167-0.167c-0.102,0-0.468,0.267-0.998,0.267c-0.833,0-1.664-0.599-1.664-1.698
		c0-0.932,0.699-1.697,1.764-1.697c0.963,0,1.697,0.798,1.697,1.896c0,1.996-2.162,4.391-5.723,4.391
		c-4.457,0-7.718-3.893-7.718-8.75s3.193-8.883,7.618-8.883c3.359,0,5.756,1.763,5.756,4.359c0,5.889-10.08,3.394-10.08,8.85
		c0,2.295,1.863,4.259,4.924,4.259C76.391,61.592,78.056,59.463,78.056,58.765z M68.008,53.175c0,1.298,0.1,2.295,0.333,3.293
		c0.933-3.46,7.585-2.928,7.585-7.951c0-2.462-1.099-4.292-3.059-4.292C69.738,44.227,68.008,48.317,68.008,53.175z"/>
	<path fill="#FFFFFF" stroke="#FFFFFF" stroke-width="0.1836" stroke-miterlimit="10" d="M95.188,59.097
		c0,1.066,0.664,1.563,1.43,1.563c0.732,0,1.396-0.632,1.465-1.563h0.099c-0.065,0.965-0.897,2.662-2.862,2.662
		c-1.73,0-2.728-1.363-2.728-3.692v-9.881c0-2.229-1.263-3.46-3.293-3.46c-2.528,0-4.125,2.362-4.125,4.625v11.978h2.063v0.099
		h-6.722v-0.1h2.097V44.658h-2.097v-0.101h4.66v3.194c0.598-1.631,2.427-3.526,5.155-3.526c3.293,0,4.857,2.495,4.857,6.321V59.097
		L95.188,59.097z"/>
</g>
<g enable-background="new    ">
	<path fill="#FFFFFF" stroke="#FFFFFF" stroke-width="0.225" stroke-miterlimit="10" d="M35.424,74.234v-5.935l4.337-2.169v8.104
		h9.417v0.17h-9.417v21.234c0,4.223,1.712,6.392,5.365,6.392c2.111,0,4.166-1.483,4.451-3.653h0.171
		c-0.285,2.682-3.253,5.365-6.849,5.365c-5.194,0-7.477-3.426-7.477-8.617v-20.72h-3.709v-0.171H35.424L35.424,74.234z"/>
	<path fill="#FFFFFF" stroke="#FFFFFF" stroke-width="0.225" stroke-miterlimit="10" d="M59.167,102.999h3.539v0.171H51.177v-0.171
		h3.595V74.405h-3.595v-0.171h7.99V102.999z M56.827,68.756c-1.598,0-2.739-1.199-2.739-2.854c0-1.712,1.255-2.968,2.739-2.968
		c1.655,0,2.796,1.199,2.796,2.91C59.624,67.5,58.368,68.756,56.827,68.756z"/>
	<path fill="#FFFFFF" stroke="#FFFFFF" stroke-width="0.225" stroke-miterlimit="10" d="M66.701,74.234v-5.935l4.336-2.169v8.104
		h9.419v0.17h-9.419v21.234c0,4.223,1.713,6.392,5.366,6.392c2.112,0,4.166-1.483,4.45-3.653h0.171
		c-0.284,2.682-3.252,5.365-6.849,5.365c-5.194,0-7.477-3.426-7.477-8.617v-20.72h-3.711v-0.171H66.701L66.701,74.234z"/>
	<path fill="#FFFFFF" stroke="#FFFFFF" stroke-width="0.225" stroke-miterlimit="10" d="M103.285,98.604
		c0-0.169-0.113-0.283-0.285-0.283c-0.17,0-0.799,0.457-1.711,0.457c-1.428,0-2.855-1.03-2.855-2.909c0-1.598,1.199-2.91,3.025-2.91
		c1.655,0,2.911,1.369,2.911,3.253c0,3.425-3.71,7.532-9.816,7.532c-7.648,0-13.241-6.676-13.241-15.012
		c0-8.332,5.479-15.238,13.07-15.238c5.762,0,9.873,3.023,9.873,7.477c0,10.104-17.293,5.822-17.293,15.182
		c0,3.938,3.196,7.305,8.447,7.305C100.431,103.457,103.285,99.805,103.285,98.604z M86.049,89.017c0,2.228,0.172,3.938,0.57,5.65
		c1.6-5.937,13.014-5.022,13.014-13.64c0-4.225-1.884-7.365-5.25-7.365C89.018,73.664,86.049,80.684,86.049,89.017z M88.332,67.329
		l-0.057-0.171c4.511-1.999,7.707-4.109,10.332-5.251c0.17-0.057,0.342-0.113,0.572-0.113c0.283,0,0.512,0.171,0.512,0.514
		c0,0.285-0.343,0.571-0.686,0.685C96.379,64.077,92.842,65.217,88.332,67.329z"/>
</g>
<text transform="matrix(1 0 0 1 -343.3594 34.1475)" font-family="'Voyage'" font-size="71.3015">édit</text>
<text transform="matrix(1 0 0 1 -343.3594 88.5957)" font-family="'Voyage'" font-size="82.9474">ion</text>
<text transform="matrix(1 0 0 1 -594.624 53.4707)" font-family="'Voyage'" font-size="110.2164">site</text>
<text transform="matrix(1 0 0 1 -594.624 89.0244)" font-family="'Voyage'" font-size="45.0347">en cours </text>
<text transform="matrix(1 0 0 1 -461.1016 20.8691)" font-family="'Voyage'" font-size="67.1178">mon</text>
<text transform="matrix(1 0 0 1 -461.1016 89.2305)" font-family="'Voyage'" font-size="123.0493">cv</text>
</svg>
