<?xml version="1.0" encoding="utf-8"?>
<!-- Generator: Adobe Illustrator 15.0.0, SVG Export Plug-In . SVG Version: 6.00 Build 0)  -->
<!DOCTYPE svg PUBLIC "-//W3C//DTD SVG 1.1//EN" "http://www.w3.org/Graphics/SVG/1.1/DTD/svg11.dtd">
<svg version="1.1" id="Layer_1" xmlns="http://www.w3.org/2000/svg" xmlns:xlink="http://www.w3.org/1999/xlink" x="0px" y="0px"
	 width="140px" height="140px" viewBox="0 0 140 140" enable-background="new 0 0 140 140" xml:space="preserve">
<text transform="matrix(1 0 0 1 -220.3525 28.5205)" font-family="'Voyage'" font-size="62.9143">iden</text>
<text transform="matrix(1 0 0 1 -220.3525 88.918)" font-family="'Voyage'" font-size="88.08">tité</text>
<g>
	<path fill="#FFFFFF" d="M38.89,43.253c1.51-5.939,3.574-5.838,5.133-4.782c0.453,0.302,0.755,0.554,0.755,0.554
		c-0.101,0.402-2.214,7.901-3.674,13.841c-1.107,4.479,0.604,4.58,1.711,2.869c1.309-2.014,1.963-3.574,3.573-7.398
		c0.805-1.812,1.158-2.164,1.158-1.208c0,0.302-0.251,1.158-0.704,2.265c-1.41,3.422-1.963,4.63-3.523,7.097
		c-3.02,4.932-8.657,3.573-6.039-6.896C37.632,48.236,38.287,45.519,38.89,43.253z M42.464,35.653
		c-1.762-0.604-2.517-2.265-1.711-3.574c0.806-1.358,2.919-1.913,4.681-1.309c1.711,0.604,2.517,2.265,1.661,3.624
		C46.289,35.754,44.175,36.257,42.464,35.653z"/>
	<path fill="#FFFFFF" d="M58.72,35.049l0.201-0.805c1.812-7.147,2.014-9.462,2.014-9.462s0.101,0,0.352-0.051
		c3.473-0.503,4.429,1.359,2.869,7.299c-0.302,1.057-0.654,2.365-1.006,3.875c-0.655,2.617-3.775,14.395-4.379,16.962
		c-1.006,4.479,0.604,4.58,1.711,2.869c1.309-2.014,1.963-3.574,3.573-7.398c0.806-1.812,1.158-2.164,1.158-1.208
		c0,0.301-0.251,1.158-0.705,2.265c-1.409,3.422-1.962,4.63-3.523,7.097c-2.465,3.976-6.542,3.824-6.694-1.812
		c-0.553,1.359-1.107,2.416-1.711,3.17c-3.422,4.279-9.261-0.15-6.14-12.028C49.409,34.496,56.053,32.583,58.72,35.049z
		 M55.147,48.688l3.271-12.582c-1.812-2.768-4.982,0.553-7.549,9.965c-2.416,9.059-0.402,13.085,1.258,10.972
		c0.906-1.158,1.963-3.875,2.92-7.902L55.147,48.688z"/>
	<path fill="#FFFFFF" d="M67.73,50.853c-0.251,5.738,2.617,8.154,5.436,6.845c2.264-1.107,4.378-3.473,6.995-9.361
		c0.855-1.812,1.158-2.164,1.158-1.208c0,0.301-0.202,1.158-0.705,2.265c-2.316,5.134-4.229,8.053-7.801,9.663
		c-6.041,2.718-11.828-1.41-8.708-13.236c3.222-12.279,13.69-13.689,15.602-10.216C81.62,39.125,74.474,46.675,67.73,50.853z
		 M67.88,49.594c6.342-4.127,8.958-11.324,7.953-13.589c-1.158-2.566-4.53,0.05-7.249,10.066
		C68.233,47.38,67.981,48.487,67.88,49.594z"/>
	<path fill="#FFFFFF" d="M81.62,59.912c-2.566-0.251-3.674-1.157-1.963-8.204c1.41-5.888,1.662-7.197,2.266-9.512
		c1.812-7.147,2.014-9.462,2.014-9.462s0.102,0,0.352-0.051c2.918-0.453,4.43,1.259,2.818,7.248c0,0.051-0.051,0.101-0.051,0.151
		c1.007-1.812,2.164-3.422,3.373-4.529c3.926-3.523,8.103-1.711,4.832,10.317c-1.058,3.724-1.209,4.328-1.812,6.996
		c-1.057,4.479,0.553,4.58,1.66,2.869c1.309-2.014,1.963-3.574,3.574-7.398c0.755-1.812,1.156-2.164,1.156-1.208
		c0,0.302-0.25,1.158-0.705,2.265c-1.408,3.422-1.962,4.63-3.521,7.097c-3.02,4.932-8.557,4.127-5.99-6.342l1.158-4.58
		c2.416-8.858,1.812-10.922-0.049-9.16c-1.965,1.862-3.927,5.334-5.185,9.713l-0.302,1.258l-0.303,1.107
		c-1.156,4.48-2.668,10.619-2.869,11.475C82.073,59.962,81.872,59.962,81.62,59.912z"/>
	<path fill="#FFFFFF" d="M42.272,73.756c0.352,0,0.705-0.07,0.916-0.564c1.691-6.904,1.902-9.371,1.902-9.371s0.211,0,0.494-0.071
		c4.509-0.634,5.989,2.043,4.298,9.089c-0.141,0.846,0.141,0.916,0.845,0.916h0.352c2.607,0,2.959,0.141,2.607,0.564
		c-0.352,0.422-1.551,0.704-2.748,0.704h-0.634c-0.705,0-0.986,0.07-1.198,0.775c-1.268,4.791-4.65,17.474-5.989,22.828
		c-1.55,6.271,0.916,6.412,2.396,4.017c1.832-2.817,2.748-5.002,5.002-10.356c1.127-2.536,1.62-3.03,1.62-1.691
		c0,0.422-0.352,1.62-0.986,3.171c-1.973,4.79-2.748,6.481-4.932,9.935c-4.229,6.905-12.119,5.003-8.456-9.652
		c1.621-6.553,3.03-10.991,4.51-16.98l0.282-1.198c0.07-0.775-0.141-0.846-0.705-0.846h-0.352c-2.607,0-2.959-0.142-2.607-0.563
		c0.352-0.423,1.55-0.705,2.748-0.705H42.272z"/>
	<path fill="#FFFFFF" d="M52.488,85.17c2.114-8.314,5.002-8.174,7.187-6.694c0.634,0.423,1.057,0.775,1.057,0.775
		c-0.141,0.563-3.1,11.062-5.144,19.376c-1.55,6.272,0.846,6.413,2.396,4.018c1.832-2.818,2.748-5.002,5.002-10.357
		c1.127-2.536,1.62-3.03,1.62-1.691c0,0.424-0.352,1.621-0.986,3.172c-1.973,4.791-2.748,6.481-4.932,9.935
		c-4.228,6.905-12.119,5.003-8.455-9.653C50.728,92.146,51.644,88.341,52.488,85.17z M57.492,74.53
		c-2.467-0.846-3.523-3.171-2.396-5.002c1.127-1.902,4.087-2.678,6.553-1.832c2.395,0.846,3.522,3.17,2.325,5.073
		C62.846,74.671,59.887,75.376,57.492,74.53z"/>
	<path fill="#FFFFFF" d="M67.285,73.756c0.352,0,0.705-0.07,0.917-0.564c1.69-6.904,1.902-9.371,1.902-9.371s0.211,0,0.493-0.071
		c4.509-0.634,5.988,2.043,4.297,9.089c-0.141,0.846,0.142,0.916,0.847,0.916h0.352c2.607,0,2.959,0.141,2.607,0.564
		c-0.352,0.422-1.551,0.704-2.748,0.704h-0.635c-0.704,0-0.985,0.07-1.198,0.775c-1.268,4.791-4.649,17.474-5.988,22.828
		c-1.55,6.271,0.917,6.412,2.396,4.017c1.832-2.817,2.748-5.002,5.001-10.356c1.128-2.536,1.621-3.03,1.621-1.691
		c0,0.422-0.352,1.62-0.985,3.171c-1.973,4.79-2.748,6.481-4.932,9.935c-4.229,6.905-12.12,5.003-8.456-9.652
		c1.621-6.553,3.03-10.991,4.51-16.98l0.282-1.198c0.07-0.775-0.141-0.846-0.705-0.846h-0.353c-2.607,0-2.959-0.142-2.607-0.563
		c0.352-0.423,1.55-0.705,2.749-0.705H67.285z"/>
	<path fill="#FFFFFF" d="M80.602,95.81c-0.351,8.032,3.664,11.415,7.61,9.582c3.171-1.55,6.131-4.861,9.795-13.104
		c1.196-2.537,1.619-3.03,1.619-1.691c0,0.422-0.282,1.62-0.986,3.171c-3.241,7.186-5.918,11.273-10.921,13.528
		c-8.454,3.803-16.559-1.974-12.19-18.531c4.511-17.192,19.166-19.166,21.844-14.304C100.048,79.392,90.044,89.96,80.602,95.81z
		 M80.813,94.048c8.878-5.777,12.541-15.853,11.133-19.023c-1.621-3.594-6.342,0.07-10.146,14.091
		C81.306,90.947,80.954,92.498,80.813,94.048z M84.195,69.88l4.862-5.707c2.114-2.536,4.368-2.396,5.283-0.775
		c0.986,1.762,0,3.664-2.043,4.438c-2.678,0.986-7.681,2.748-7.681,2.748L84.195,69.88z"/>
</g>
<text transform="matrix(1 0 0 1 -343.3594 34.1475)" font-family="'Voyage'" font-size="71.3015">édit</text>
<text transform="matrix(1 0 0 1 -343.3594 88.5957)" font-family="'Voyage'" font-size="82.9474">ion</text>
<text transform="matrix(1 0 0 1 -594.624 53.4707)" font-family="'Voyage'" font-size="110.2164">site</text>
<text transform="matrix(1 0 0 1 -594.624 89.0244)" font-family="'Voyage'" font-size="45.0347">en cours </text>
<text transform="matrix(1 0 0 1 -461.1016 20.8691)" font-family="'Voyage'" font-size="67.1178">mon</text>
<text transform="matrix(1 0 0 1 -461.1016 89.2305)" font-family="'Voyage'" font-size="123.0493">cv</text>
</svg>
