<?xml version="1.0" encoding="utf-8"?>
<!-- Generator: Adobe Illustrator 15.0.0, SVG Export Plug-In . SVG Version: 6.00 Build 0)  -->
<!DOCTYPE svg PUBLIC "-//W3C//DTD SVG 1.1//EN" "http://www.w3.org/Graphics/SVG/1.1/DTD/svg11.dtd">
<svg version="1.1" id="Layer_1" xmlns="http://www.w3.org/2000/svg" xmlns:xlink="http://www.w3.org/1999/xlink" x="0px" y="0px"
	 width="140px" height="140px" viewBox="0 0 140 140" enable-background="new 0 0 140 140" xml:space="preserve">
<g>
	<path fill="#FFFFFF" d="M29.194,47.511c2.116-8.321,5.006-8.181,7.193-6.699c0.635,0.423,1.057,0.775,1.057,0.775
		c-0.141,0.564-3.102,11.072-5.148,19.394c-1.551,6.276,0.847,6.417,2.398,4.019c1.833-2.821,2.75-5.007,5.007-10.366
		c1.128-2.539,1.622-3.033,1.622-1.693c0,0.423-0.352,1.622-0.987,3.174c-1.975,4.795-2.75,6.488-4.937,9.943
		c-4.23,6.911-12.129,5.006-8.462-9.662C27.43,54.493,28.347,50.684,29.194,47.511z M34.201,36.863
		c-2.468-0.847-3.525-3.174-2.397-5.008c1.129-1.904,4.09-2.68,6.559-1.833c2.397,0.847,3.525,3.174,2.327,5.078
		C39.56,37.003,36.598,37.709,34.201,36.863z"/>
	<path fill="#FFFFFF" d="M44.354,34.888c2.468-10.014,2.82-13.258,2.82-13.258s0.212,0,0.494-0.07
		c4.795-0.706,6.135,2.257,4.019,10.226c-0.423,1.481-5.923,22.778-7.546,29.195C42.59,67.257,44.988,67.398,46.54,65
		c1.833-2.821,2.75-5.007,5.007-10.366c1.058-2.539,1.622-3.033,1.622-1.693c0,0.423-0.353,1.622-0.988,3.174
		c-1.974,4.795-2.75,6.488-4.936,9.943c-4.231,6.911-12.129,5.006-8.462-9.662C40.406,49.839,42.874,40.812,44.354,34.888z"/>
	<path fill="#FFFFFF" d="M56.202,34.888c2.468-10.014,2.82-13.258,2.82-13.258s0.211,0,0.493-0.07
		c4.795-0.706,6.136,2.256,4.02,10.225c-0.423,1.481-5.923,22.778-7.546,29.195c-1.551,6.276,0.847,6.417,2.398,4.02
		c1.833-2.821,2.75-5.007,5.007-10.367c1.058-2.538,1.622-3.033,1.622-1.692c0,0.423-0.352,1.622-0.987,3.173
		c-1.974,4.795-2.75,6.488-4.936,9.943c-4.231,6.912-12.13,5.005-8.463-9.662C52.252,49.839,54.72,40.812,56.202,34.888z"/>
	<path fill="#FFFFFF" d="M66.918,41.305c2.327-9.097,4.867-8.604,7.546-7.052c0.563,0.353,0.917,0.564,0.917,0.564
		c-0.492,1.693-3.667,13.187-6.911,26.163c-1.481,6.276,0.987,6.417,2.539,4.02c3.738-6.065,7.263-17.207,9.167-23.695
		c2.327-9.097,4.866-8.604,7.617-7.052c0.494,0.353,0.846,0.564,0.846,0.564c-0.494,1.693-3.666,13.188-6.84,26.164
		c-1.551,6.276,0.846,6.417,2.398,4.019c1.832-2.821,2.75-5.007,5.006-10.366c1.058-2.539,1.623-3.033,1.623-1.693
		c0,0.423-0.354,1.622-0.987,3.173c-1.976,4.795-2.751,6.488-4.938,9.943c-4.23,6.911-12.129,5.005-8.461-9.662
		c0-0.07,0-0.212,0.07-0.282c-1.412,3.455-3.033,6.981-4.796,9.943c-4.231,6.982-12.2,5.006-8.534-9.661
		C63.957,53.153,65.579,46.524,66.918,41.305z"/>
	<path fill="#FFFFFF" d="M105.352,53.011c0.424,1.623,0.635,3.456,0.635,5.431c0.07,10.649-9.943,14.667-15.021,11.001
		c-3.597-2.68-2.609-7.969,1.198-11.566c1.622-1.481,4.091-2.961,7.052-4.161c-0.917-3.95-2.68-7.475-4.372-10.084
		c-1.409,3.808-2.891,7.616-4.09,10.507c-0.28,0.776-1.481,3.526-1.765,2.75c-0.352-0.847,0.072-1.834,0.425-2.75
		c1.271-3.597,3.03-7.969,4.442-12.13c-0.142-0.141-0.281-0.282-0.353-0.494c-2.751-3.878-2.327-6.911-0.987-8.815
		c2.187-3.103,6.771-1.692,6.771-1.692c-0.142,0.352-0.634,2.044-1.552,4.583l-1.129,3.314c0,0,0,0.07,0.07,0.07
		c3.668,4.161,6.842,7.969,8.393,12.976c1.904-0.494,3.81-0.776,5.783-0.987c2.752-0.282,3.457-0.07,2.256,0.564
		c-0.352,0.212-1.551,0.494-3.244,0.635C108.312,52.307,106.762,52.588,105.352,53.011z M99.497,55.127
		c-2.608,1.199-4.795,2.609-6.205,3.95c-3.033,2.961-3.385,6.911-1.199,8.674c2.47,1.975,7.122,0.07,7.687-7.405
		C99.921,58.583,99.777,56.819,99.497,55.127z"/>
	<path fill="#FFFFFF" d="M29.223,82.594c0.362,0,0.588-0.182,0.768-0.859c0.949-4.067,1.084-5.516,1.084-5.516s0.09,0,0.317-0.045
		c2.802-0.406,3.752,1.176,2.848,5.334c-0.227,1.041-0.136,1.084,0.451,1.084h0.225c1.673,0,1.854,0.092,1.627,0.361
		c-0.225,0.271-0.95,0.453-1.762,0.453H34.42c-0.452,0-0.633,0.045-0.814,0.496c-0.768,3.029-2.938,11.211-3.797,14.646
		c-1.04,4.022,0.361,4.295,1.537,2.894c2.758-3.254,5.333-9.447,7.549-17.629c-1.944-0.903-2.124-1.672-1.447-2.804
		c1.266-2.079,3.887-1.717,3.887-1.717s-0.226,0.994-0.587,2.44c6.464,1.853,6.781,1.988,6.555,2.849L43.912,98.55
		c-0.993,4.021,0.543,4.113,1.538,2.576c1.175-1.81,1.763-3.209,3.21-6.646c0.678-1.627,1.039-1.942,1.039-1.084
		c0,0.226-0.226,1.039-0.633,2.033c-1.266,3.074-1.762,4.158-3.164,6.373c-2.712,4.43-7.775,3.211-5.424-6.238l1.808-8
		c0.317-1.446,0.407-2.352-0.723-2.758c-0.452-0.135-0.994-0.315-1.537-0.543c-2.351,7.912-4.973,13.879-8.228,17.855
		c-3.3,4.023-7.774,2.893-5.424-6.555c1.04-4.158,1.944-7.006,2.893-10.85l0.136-0.587c0.09-0.633-0.046-0.724-0.407-0.724H28.77
		c-1.673,0-1.898-0.092-1.673-0.361c0.227-0.271,0.995-0.452,1.763-0.452h0.363V82.594z"/>
	<path fill="#FFFFFF" d="M59.87,82.639c1.176-2.306,2.441-1.945,3.752-1.221c0.361,0.227,0.542,0.361,0.542,0.361
		c-0.271,1.085-2.351,8.453-4.384,16.771c-0.994,4.021,0.587,4.113,1.537,2.576c1.175-1.81,1.762-3.209,3.209-6.646
		c0.723-1.627,1.04-1.942,1.04-1.084c0,0.271-0.226,1.039-0.633,2.033c-1.265,3.074-1.763,4.158-3.165,6.373
		c-2.215,3.572-5.876,3.437-6.012-1.627c-0.497,1.221-0.995,2.17-1.537,2.848c-3.075,3.843-8.317-0.135-5.515-10.803
		C51.417,81.869,57.565,80.288,59.87,82.639z M56.66,94.391l2.08-8.451c0.225-0.95,0.497-1.764,0.768-2.44
		c-1.627-2.531-4.476,0.451-6.825,8.951c-2.17,8.137-0.361,11.752,1.13,9.854c0.814-1.041,1.763-3.482,2.622-7.099
		C56.525,94.889,56.571,94.617,56.66,94.391z"/>
	<path fill="#FFFFFF" d="M67.282,82.594c0.226,0,0.451-0.045,0.587-0.361c1.084-4.431,1.22-6.014,1.22-6.014s0.136,0,0.317-0.045
		c2.892-0.406,3.841,1.311,2.756,5.832c-0.089,0.543,0.091,0.586,0.544,0.586h0.226c1.674,0,1.897,0.092,1.674,0.361
		c-0.228,0.271-0.996,0.453-1.765,0.453h-0.405c-0.453,0-0.634,0.045-0.771,0.496c-0.812,3.074-2.983,11.211-3.842,14.646
		c-0.995,4.022,0.587,4.115,1.537,2.576c1.175-1.81,1.763-3.209,3.208-6.646c0.724-1.627,1.041-1.942,1.041-1.084
		c0,0.271-0.227,1.041-0.633,2.033c-1.267,3.074-1.764,4.16-3.165,6.375c-2.713,4.43-7.775,3.209-5.424-6.193
		c1.039-4.202,1.944-7.051,2.893-10.894l0.181-0.769c0.045-0.497-0.09-0.543-0.452-0.543h-0.226c-1.673,0-1.898-0.09-1.673-0.361
		c0.227-0.271,0.995-0.451,1.763-0.451h0.408V82.594z"/>
	<path fill="#FFFFFF" d="M73.836,89.916c1.355-5.334,3.21-5.244,4.612-4.295c0.405,0.271,0.678,0.498,0.678,0.498
		c-0.091,0.361-1.989,7.096-3.301,12.432c-0.994,4.021,0.543,4.113,1.536,2.576c1.177-1.809,1.765-3.209,3.212-6.645
		c0.723-1.627,1.038-1.943,1.038-1.084c0,0.27-0.225,1.039-0.633,2.033c-1.266,3.073-1.764,4.157-3.164,6.373
		c-2.713,4.43-7.774,3.211-5.424-6.191C72.707,94.391,73.293,91.949,73.836,89.916z M77.044,83.091
		c-1.581-0.542-2.259-2.034-1.535-3.21c0.724-1.22,2.621-1.717,4.203-1.175c1.537,0.542,2.261,2.034,1.492,3.253
		C80.48,83.182,78.582,83.632,77.044,83.091z"/>
	<path fill="#FFFFFF" d="M91.193,81.825c-2.938-0.226-4.838,3.571-6.51,10.622c-1.988,8.363-1.399,10.803,0.271,10.715
		c1.4-0.092,3.074-4.023,4.564-9.357c-0.541-0.498-1.084-1.086-1.446-1.854c-1.944-3.707-0.813-8.363,2.757-9.221
		c2.938-0.725,5.152,1.808,2.893,10.262l-0.271,0.949c0.723-0.271,1.536-0.771,2.396-1.629c1.312-1.22,1.717-1.4,1.4-0.633
		c-0.089,0.227-0.586,0.903-1.354,1.674c-0.906,0.856-1.81,1.311-2.713,1.446c-2.17,6.238-6.104,9.402-8.725,9.492
		c-2.531,0.09-6.328-2.396-3.797-12.067c1.943-7.324,5.785-11.664,10.668-11.214C92.775,81.102,91.962,81.916,91.193,81.825z
		 M89.793,92.855c1.764-6.691,2.124-9.357,0.77-9.086c-2.125,0.451-3.347,4.746-1.674,7.819
		C89.159,92.086,89.432,92.492,89.793,92.855z"/>
	<path fill="#FFFFFF" d="M96.753,104.879c-2.305-0.227-3.3-1.041-1.762-7.369c1.266-5.287,1.489-6.463,2.032-8.543
		c1.627-6.418,1.81-8.498,1.81-8.498s0.09,0,0.315-0.046c2.621-0.407,3.979,1.13,2.531,6.509c0,0.047-0.045,0.092-0.045,0.137
		c0.904-1.627,1.943-3.073,3.028-4.067c3.526-3.164,7.276-1.537,4.34,9.267c-0.95,3.346-1.085,3.887-1.628,6.282
		c-0.949,4.023,0.498,4.115,1.491,2.576c1.176-1.81,1.763-3.209,3.21-6.646c0.678-1.627,1.039-1.942,1.039-1.084
		c0,0.271-0.225,1.041-0.633,2.033c-1.266,3.074-1.762,4.16-3.164,6.375c-2.713,4.43-7.684,3.707-5.379-5.695l1.039-4.114
		c2.172-7.955,1.627-9.81-0.045-8.228c-1.763,1.674-3.524,4.793-4.656,8.726l-0.271,1.129l-0.271,0.996
		c-1.041,4.022-2.396,9.536-2.577,10.305C97.16,104.924,96.979,104.924,96.753,104.879z"/>
</g>
<text transform="matrix(1 0 0 1 -594.624 53.4707)" font-family="'Myriad-Roman'" font-size="110.2164">site</text>
<text transform="matrix(1 0 0 1 -594.624 89.0244)" enable-background="new    "><tspan x="0" y="0" font-family="'Myriad-Roman'" font-size="45.0347">en</tspan><tspan x="47.556" y="0" font-family="'ArialHebrew'" font-size="45.0347"> </tspan><tspan x="60.068" y="0" font-family="'Myriad-Roman'" font-size="45.0347">cours</tspan><tspan x="162.341" y="0" font-family="'ArialHebrew'" font-size="45.0347"> </tspan></text>
</svg>
