<?xml version="1.0" encoding="utf-8"?>
<!-- Generator: Adobe Illustrator 15.0.0, SVG Export Plug-In . SVG Version: 6.00 Build 0)  -->
<!DOCTYPE svg PUBLIC "-//W3C//DTD SVG 1.1//EN" "http://www.w3.org/Graphics/SVG/1.1/DTD/svg11.dtd">
<svg version="1.1" id="Layer_1" xmlns="http://www.w3.org/2000/svg" xmlns:xlink="http://www.w3.org/1999/xlink" x="0px" y="0px"
	 width="140px" height="140px" viewBox="0 0 140 140" enable-background="new 0 0 140 140" xml:space="preserve">
<g enable-background="new    ">
	<path fill="#FFFFFF" stroke="#FFFFFF" stroke-width="0.1921" stroke-miterlimit="10" d="M35.965,72.736h3.024v0.146h-9.851v-0.146
		h3.073V48.297h-3.073v-0.146h6.828L35.965,72.736L35.965,72.736z M33.966,43.468c-1.366,0-2.342-1.025-2.342-2.438
		c0-1.463,1.073-2.538,2.342-2.538c1.414,0,2.39,1.024,2.39,2.489C36.356,42.395,35.284,43.468,33.966,43.468z"/>
	<path fill="#FFFFFF" stroke="#FFFFFF" stroke-width="0.1921" stroke-miterlimit="10" d="M46.111,69.466
		c0,1.562,0.976,2.294,2.097,2.294c1.073,0,2.049-0.929,2.146-2.294H50.5c-0.097,1.416-1.318,3.903-4.195,3.903
		c-2.536,0-3.903-1.999-3.903-5.414V38.883h-3.169v-0.147h6.878V69.466L46.111,69.466z"/>
	<path fill="#FFFFFF" stroke="#FFFFFF" stroke-width="0.1921" stroke-miterlimit="10" d="M57.865,69.466
		c0,1.562,0.976,2.294,2.097,2.294c1.072,0,2.048-0.929,2.146-2.294h0.146c-0.097,1.416-1.316,3.903-4.195,3.903
		c-2.536,0-3.902-1.999-3.902-5.414V38.883h-3.171v-0.147h6.879V69.466L57.865,69.466z"/>
	<path fill="#FFFFFF" stroke="#FFFFFF" stroke-width="0.1921" stroke-miterlimit="10" d="M73.523,73.369
		c-4.83,0-7.124-3.658-7.124-9.268V51.566c0-1.562-0.975-2.292-2.096-2.292c-1.072,0-2.049,0.927-2.147,2.292h-0.146
		c0.097-1.415,1.317-3.901,4.195-3.901c2.536,0,4,2,4,5.413v14.487c0,3.267,1.853,5.074,4.828,5.074c3.707,0,6.048-3.22,6.048-6.538
		V48.297h-3.021v-0.146h6.73v21.314c0,1.561,0.977,2.294,2.098,2.294c1.072,0,2.049-0.929,2.146-2.294h0.146
		c-0.099,1.416-1.317,3.903-4.197,3.903c-2.193,0-3.657-1.951-3.902-4.926C80.205,70.832,77.523,73.369,73.523,73.369z"/>
	<path fill="#FFFFFF" stroke="#FFFFFF" stroke-width="0.1921" stroke-miterlimit="10" d="M107.033,48.882
		c0.877,0,1.365-0.537,1.365-1.316h0.145v7.756h-0.145c-0.83-4.097-2.976-7.513-7.806-7.513c-3.997,0-5.709,2.245-5.709,4.977
		c0,7.707,14.392,4.877,14.392,13.414c0,4.194-3.901,7.17-8.926,7.17c-5.22,0-8.73-3.219-8.73-6.244c0-1.609,1.07-2.781,2.486-2.781
		c1.561,0,2.586,1.122,2.586,2.487c0,1.611-1.217,2.489-2.438,2.489c-0.78,0-1.319-0.391-1.464-0.391s-0.244,0.097-0.244,0.244
		c0,1.025,2.781,3.952,7.512,3.952c3.902,0,6.293-2.243,6.293-5.073c0-7.659-14.389-4.878-14.389-13.415
		c0-4.243,3.365-7.073,8.633-7.073C104.301,47.565,105.129,48.882,107.033,48.882z"/>
</g>
<g enable-background="new    ">
	<path fill="#FFFFFF" stroke="#FFFFFF" stroke-width="0.225" stroke-miterlimit="10" d="M19.927,84.145v-3.81l2.782-1.39v5.199
		h6.042v0.108h-6.042v13.621c0,2.709,1.099,4.101,3.442,4.101c1.354,0,2.672-0.951,2.855-2.343h0.11
		c-0.183,1.72-2.087,3.44-4.394,3.44c-3.332,0-4.796-2.196-4.796-5.529v-13.29h-2.381v-0.108H19.927L19.927,84.145z"/>
	<path fill="#FFFFFF" stroke="#FFFFFF" stroke-width="0.225" stroke-miterlimit="10" d="M35.157,91.174v11.422h2.269v0.11H30.03
		v-0.11h2.307V84.254H30.03v-0.109h5.125v4.504c0.695-1.758,2.269-4.797,5.53-4.797c2.747,0,4.028,1.866,4.028,3.81
		c0,1.315-0.88,2.231-2.05,2.231c-1.099,0-1.977-0.807-1.977-1.978c0-1.245,0.953-1.94,1.94-1.94c0.439,0,0.807,0.146,0.917,0.146
		s0.183-0.109,0.183-0.219c0-0.625-0.879-1.941-3.038-1.941C37.465,83.961,35.157,87.293,35.157,91.174z"/>
	<path fill="#FFFFFF" stroke="#FFFFFF" stroke-width="0.225" stroke-miterlimit="10" d="M49.657,88.758
		c0,1.025-0.769,1.867-1.94,1.867c-1.062,0-1.868-0.879-1.868-2.088c0-2.197,2.197-4.832,6.115-4.832
		c4.247,0,6.737,2.855,6.737,7.105v9.334c0,1.172,0.695,1.721,1.538,1.721c0.916,0,1.612-0.695,1.72-1.721h0.11
		c-0.073,1.062-0.953,2.931-3.075,2.931c-1.904,0-2.894-1.101-3.075-3.515c-0.733,1.608-2.82,3.515-5.75,3.515
		c-2.599,0-4.906-1.574-4.906-4.431c0-6.92,10.984-3.733,10.984-10.766c0-2.602-1.685-3.992-4.834-3.992
		c-3.221,0-4.869,2.346-4.869,3.112c0,0.108,0.074,0.183,0.182,0.183c0.11,0,0.513-0.291,1.1-0.291
		C48.742,86.891,49.657,87.549,49.657,88.758z M55.881,90.295c-2.05,3.369-7.652,2.893-7.652,8.092c0,2.233,1.464,3.661,3.624,3.661
		c2.454,0,4.028-1.758,4.028-3.735V90.295z"/>
	<path fill="#FFFFFF" stroke="#FFFFFF" stroke-width="0.225" stroke-miterlimit="10" d="M63.532,84.145v-3.81l2.784-1.39v5.199
		h6.042v0.108h-6.042v13.621c0,2.709,1.098,4.101,3.439,4.101c1.355,0,2.676-0.951,2.855-2.343h0.109
		c-0.183,1.72-2.086,3.44-4.393,3.44c-3.332,0-4.796-2.196-4.796-5.529v-13.29h-2.38v-0.108H63.532L63.532,84.145z"/>
	<path fill="#FFFFFF" stroke="#FFFFFF" stroke-width="0.225" stroke-miterlimit="10" d="M78.762,102.598h2.271v0.109h-7.396v-0.109
		h2.305V84.254h-2.305v-0.109h5.125V102.598L78.762,102.598z M77.264,80.631c-1.027,0-1.758-0.77-1.758-1.832
		c0-1.099,0.807-1.902,1.758-1.902c1.062,0,1.793,0.77,1.793,1.865C79.059,79.824,78.251,80.631,77.264,80.631z"/>
	<path fill="#FFFFFF" stroke="#FFFFFF" stroke-width="0.225" stroke-miterlimit="10" d="M90.59,103.037
		c-4.867,0-8.457-4.211-8.457-9.557c0-5.383,3.918-9.738,8.643-9.738c4.869,0,8.457,4.173,8.457,9.518
		C99.232,98.645,95.312,103.037,90.59,103.037z M90.771,83.889c-3.806,0-5.603,4.026-5.603,9.408c0,5.348,1.795,9.594,5.418,9.594
		c3.808,0,5.604-4.063,5.604-9.447C96.193,88.098,94.398,83.889,90.771,83.889z"/>
	<path fill="#FFFFFF" stroke="#FFFFFF" stroke-width="0.225" stroke-miterlimit="10" d="M117.573,100.145
		c0,1.172,0.729,1.722,1.575,1.722c0.806,0,1.537-0.696,1.608-1.722h0.111c-0.074,1.062-0.99,2.93-3.15,2.93
		c-1.903,0-3-1.501-3-4.065V88.135c0-2.455-1.395-3.808-3.627-3.808c-2.782,0-4.54,2.6-4.54,5.089v13.182h2.27v0.109h-7.396v-0.109
		h2.307V84.254h-2.307v-0.109h5.126v3.517c0.658-1.795,2.675-3.882,5.677-3.882c3.625,0,5.344,2.746,5.344,6.957v9.408H117.573
		L117.573,100.145z"/>
</g>
</svg>
