<?xml version="1.0" encoding="utf-8"?>
<!-- Generator: Adobe Illustrator 15.0.0, SVG Export Plug-In . SVG Version: 6.00 Build 0)  -->
<!DOCTYPE svg PUBLIC "-//W3C//DTD SVG 1.1//EN" "http://www.w3.org/Graphics/SVG/1.1/DTD/svg11.dtd">
<svg version="1.1" id="Layer_1" xmlns="http://www.w3.org/2000/svg" xmlns:xlink="http://www.w3.org/1999/xlink" x="0px" y="0px"
	 width="140px" height="140px" viewBox="0 0 140 140" enable-background="new 0 0 140 140" xml:space="preserve">
<text transform="matrix(1 0 0 1 -185.624 53.4707)" font-family="'Voyage'" font-size="110.2164">site</text>
<text transform="matrix(1 0 0 1 -185.624 89.0244)" font-family="'Voyage'" font-size="45.0347">en cours </text>
<g>
	<path fill="#FFFFFF" d="M50.663,58.46c0.529,2.028,0.794,4.32,0.794,6.789c0.088,13.314-12.432,18.34-18.781,13.754
		c-4.497-3.351-3.263-9.963,1.499-14.46c2.028-1.851,5.114-3.703,8.817-5.202c-1.146-4.938-3.351-9.346-5.466-12.609
		c-1.763,4.762-3.615,9.522-5.115,13.138c-0.353,0.97-1.851,4.409-2.204,3.438c-0.441-1.059,0.088-2.293,0.53-3.438
		c1.586-4.497,3.79-9.963,5.554-15.166c-0.177-0.176-0.353-0.353-0.441-0.617c-3.438-4.85-2.91-8.641-1.234-11.022
		c2.734-3.879,8.465-2.116,8.465-2.116c-0.176,0.441-0.793,2.557-1.94,5.731l-1.411,4.144c0,0,0,0.088,0.088,0.088
		c4.584,5.203,8.552,9.964,10.492,16.225c2.381-0.617,4.762-0.97,7.23-1.234c3.438-0.354,4.32-0.088,2.821,0.705
		c-0.44,0.265-1.939,0.617-4.056,0.793C54.367,57.577,52.427,57.93,50.663,58.46z M43.345,61.104
		c-3.262,1.5-5.996,3.262-7.759,4.938c-3.792,3.703-4.232,8.641-1.499,10.846c3.085,2.469,8.904,0.087,9.61-9.258
		C43.874,65.425,43.698,63.221,43.345,61.104z"/>
	<path fill="#FFFFFF" d="M58.07,51.581c2.646-10.404,6.26-10.228,8.994-8.375c0.793,0.528,1.322,0.969,1.322,0.969
		c-0.177,0.706-3.879,13.843-6.436,24.248c-1.94,7.848,1.058,8.023,2.997,5.025c2.293-3.526,3.439-6.259,6.261-12.961
		c1.411-3.175,2.028-3.792,2.028-2.116c0,0.529-0.441,2.028-1.234,3.967c-2.469,5.996-3.439,8.112-6.173,12.432
		c-5.291,8.643-15.166,6.262-10.581-12.078C55.866,60.311,57.012,55.549,58.07,51.581z M64.33,38.268
		c-3.085-1.058-4.409-3.967-2.997-6.26c1.41-2.381,5.114-3.351,8.2-2.293c2.997,1.059,4.408,3.968,2.909,6.349
		C71.031,38.444,67.328,39.326,64.33,38.268z"/>
	<path fill="#FFFFFF" d="M76.586,37.298c0.44,0,0.882-0.088,1.146-0.705c2.116-8.641,2.38-11.727,2.38-11.727s0.264,0,0.617-0.088
		c5.645-0.794,7.494,2.557,5.379,11.374c-0.178,1.058,0.177,1.146,1.059,1.146h0.441c3.262,0,3.703,0.176,3.262,0.706
		c-0.441,0.528-1.94,0.881-3.439,0.881h-0.793c-0.883,0-1.234,0.088-1.498,0.97c-1.588,5.996-5.82,21.866-7.496,28.567
		c-1.939,7.849,1.146,8.023,2.998,5.025c2.293-3.527,3.438-6.26,6.26-12.961c1.411-3.175,2.028-3.792,2.028-2.116
		c0,0.528-0.44,2.028-1.234,3.967c-2.469,5.996-3.438,8.112-6.172,12.432c-5.29,8.642-15.166,6.261-10.582-12.079
		c2.028-8.2,3.793-13.754,5.645-21.25l0.352-1.5c0.088-0.969-0.176-1.059-0.882-1.059h-0.441c-3.262,0-3.703-0.176-3.262-0.706
		c0.44-0.529,1.94-0.881,3.438-0.881L76.586,37.298L76.586,37.298z"/>
	<path fill="#FFFFFF" d="M93.249,64.896c-0.441,10.052,4.586,14.284,9.523,11.992c3.967-1.94,7.67-6.084,12.254-16.4
		c1.5-3.174,2.028-3.792,2.028-2.116c0,0.528-0.352,2.027-1.234,3.967c-4.056,8.993-7.406,14.107-13.667,16.929
		c-10.582,4.762-20.719-2.469-15.254-23.188c5.645-21.515,23.984-23.983,27.335-17.899C117.585,44.352,105.063,57.577,93.249,64.896
		z M93.515,62.692c11.109-7.23,15.693-19.838,13.931-23.807c-2.028-4.497-7.937,0.088-12.696,17.635
		C94.132,58.812,93.69,60.751,93.515,62.692z"/>
	<path fill="#FFFFFF" d="M31.694,102.047c-0.18,4.107,1.873,5.836,3.891,4.9c1.621-0.793,3.133-2.486,5.007-6.701
		c0.613-1.297,0.829-1.549,0.829-0.865c0,0.217-0.144,0.828-0.504,1.621c-1.657,3.676-3.026,5.764-5.583,6.918
		c-4.322,1.943-8.465-1.01-6.232-9.475c2.306-8.789,9.798-9.799,11.167-7.312C41.636,93.654,36.521,99.057,31.694,102.047z
		 M31.802,101.146c4.539-2.953,6.412-8.105,5.691-9.727c-0.829-1.836-3.242,0.038-5.188,7.205
		C32.054,99.561,31.874,100.354,31.802,101.146z"/>
	<path fill="#FFFFFF" d="M41.637,108.531c-1.837-0.182-2.63-0.828-1.405-5.873c1.009-4.215,1.188-5.15,1.621-6.809
		c1.297-5.114,1.441-6.771,1.441-6.771s0.072,0,0.252-0.036c2.09-0.324,3.17,0.901,2.017,5.187c0,0.037-0.036,0.072-0.036,0.109
		c0.72-1.297,1.549-2.45,2.414-3.242c2.81-2.521,5.8-1.225,3.458,7.383c-0.757,2.666-0.864,3.098-1.296,5.008
		c-0.757,3.207,0.396,3.279,1.188,2.053c0.937-1.441,1.405-2.557,2.558-5.295c0.541-1.297,0.828-1.549,0.828-0.863
		c0,0.215-0.18,0.828-0.504,1.621c-1.009,2.449-1.404,3.312-2.521,5.078c-2.162,3.531-6.124,2.953-4.287-4.539l0.829-3.279
		c1.729-6.338,1.297-7.815-0.036-6.555c-1.405,1.332-2.809,3.818-3.71,6.951l-0.216,0.9l-0.216,0.795
		c-0.829,3.203-1.91,7.6-2.054,8.211C41.961,108.566,41.817,108.566,41.637,108.531z"/>
	<path fill="#FFFFFF" d="M68.765,95.924c-0.973,1.152-2.557,1.477-3.314,0.504c-0.865-1.152,0.108-2.629,1.296-2.484
		c1.766,0.252,2.955-1.082,2.09-2.521c-1.045-1.729-4.323,0.036-6.268,7.205c-1.801,6.59,0.324,9.006,2.089,8.285
		c1.622-0.686,3.242-2.449,5.115-6.666c0.613-1.297,0.829-1.549,0.829-0.863c0,0.215-0.145,0.828-0.505,1.621
		c-1.656,3.674-3.133,5.834-5.728,6.879c-3.639,1.441-7.241-0.936-5.007-9.438c2.306-8.789,8.681-9.762,10.086-7.312
		C70.278,92.572,69.953,94.518,68.765,95.924z"/>
	<path fill="#FFFFFF" d="M78.24,90.161c-2.342-0.182-3.854,2.845-5.187,8.464c-1.585,6.666-1.116,8.609,0.216,8.537
		c1.117-0.072,2.45-3.205,3.639-7.455c-0.432-0.396-0.865-0.865-1.152-1.479c-1.549-2.953-0.648-6.663,2.197-7.348
		c2.343-0.577,4.106,1.441,2.306,8.176l-0.217,0.758c0.578-0.219,1.225-0.613,1.91-1.297c1.045-0.973,1.369-1.117,1.117-0.506
		c-0.072,0.182-0.469,0.721-1.082,1.334c-0.721,0.684-1.44,1.045-2.16,1.152c-1.73,4.971-4.864,7.492-6.952,7.564
		c-2.018,0.072-5.044-1.91-3.026-9.617c1.548-5.836,4.611-9.294,8.501-8.934C79.501,89.584,78.853,90.231,78.24,90.161z
		 M77.123,98.949c1.405-5.332,1.693-7.455,0.613-7.24c-1.693,0.359-2.666,3.783-1.333,6.23
		C76.619,98.336,76.836,98.66,77.123,98.949z"/>
	<path fill="#FFFFFF" d="M83.429,93.438c1.188-4.646,2.485-4.395,3.854-3.602c0.288,0.18,0.469,0.287,0.469,0.287
		c-0.251,0.864-1.873,6.736-3.529,13.363c-0.758,3.207,0.504,3.279,1.297,2.055c1.908-3.098,3.709-8.789,4.684-12.104
		c1.188-4.648,2.484-4.396,3.889-3.603c0.253,0.18,0.433,0.288,0.433,0.288c-0.251,0.864-1.874,6.736-3.493,13.363
		c-0.793,3.207,0.432,3.279,1.224,2.053c0.937-1.441,1.405-2.557,2.558-5.295c0.54-1.297,0.829-1.549,0.829-0.863
		c0,0.215-0.181,0.828-0.505,1.621c-1.01,2.449-1.405,3.312-2.521,5.078c-2.161,3.531-6.195,2.559-4.322-4.936
		c0-0.035,0-0.107,0.036-0.143c-0.72,1.764-1.55,3.564-2.45,5.078c-2.16,3.566-6.23,2.559-4.358-4.936
		C81.915,99.49,82.743,96.104,83.429,93.438z"/>
	<path fill="#FFFFFF" d="M97.911,92.178c-0.721,3.242-1.982,6.844-2.81,8.896c-0.325,0.828-0.649,1.404-0.792,1.549
		c-0.434,0.469-0.469,0.109,0.035-1.223c0.937-2.379,2.053-6.377,2.702-9.618c-1.657-0.757-1.802-1.37-1.261-2.27
		c1.008-1.656,3.098-1.369,3.098-1.369s-0.289,0.757-0.54,1.909c5.224,1.513,5.476,1.621,5.296,2.305l-2.702,11.131
		c-0.794,3.207,0.431,3.279,1.224,2.053c0.937-1.439,1.406-2.557,2.558-5.295c0.54-1.297,0.828-1.549,0.828-0.863
		c0,0.215-0.18,0.828-0.505,1.621c-1.008,2.449-1.404,3.314-2.521,5.078c-2.16,3.531-6.195,2.559-4.322-4.936l1.442-6.41
		c0.251-1.154,0.323-1.875-0.577-2.199C98.704,92.43,98.308,92.322,97.911,92.178z"/>
	<path fill="#FFFFFF" d="M112.97,99.418c0.217,0.828,0.324,1.764,0.324,2.773c0.035,5.439-5.08,7.492-7.673,5.619
		c-1.837-1.369-1.333-4.07,0.613-5.908c0.828-0.756,2.089-1.512,3.602-2.125c-0.469-2.018-1.368-3.818-2.233-5.15
		c-0.72,1.945-1.478,3.891-2.088,5.367c-0.146,0.396-0.758,1.801-0.902,1.406c-0.18-0.434,0.037-0.938,0.217-1.406
		c0.648-1.836,1.551-4.07,2.271-6.195c-0.073-0.072-0.146-0.145-0.182-0.252c-1.404-1.981-1.188-3.53-0.505-4.503
		c1.117-1.585,3.458-0.864,3.458-0.864c-0.072,0.18-0.324,1.045-0.793,2.342l-0.576,1.691c0,0,0,0.037,0.036,0.037
		c1.874,2.125,3.493,4.07,4.286,6.627c0.973-0.25,1.947-0.395,2.955-0.504c1.404-0.145,1.766-0.035,1.152,0.287
		c-0.182,0.109-0.793,0.252-1.658,0.324C114.483,99.057,113.69,99.201,112.97,99.418z M109.979,100.498
		c-1.332,0.613-2.449,1.332-3.17,2.016c-1.549,1.514-1.729,3.531-0.613,4.432c1.262,1.01,3.64,0.037,3.928-3.783
		C110.196,102.262,110.124,101.361,109.979,100.498z"/>
</g>
</svg>
