<?xml version="1.0" encoding="utf-8"?>
<!-- Generator: Adobe Illustrator 15.0.0, SVG Export Plug-In . SVG Version: 6.00 Build 0)  -->
<!DOCTYPE svg PUBLIC "-//W3C//DTD SVG 1.1//EN" "http://www.w3.org/Graphics/SVG/1.1/DTD/svg11.dtd">
<svg version="1.1" id="Layer_1" xmlns="http://www.w3.org/2000/svg" xmlns:xlink="http://www.w3.org/1999/xlink" x="0px" y="0px"
	 width="140px" height="140px" viewBox="0 0 140 140" enable-background="new 0 0 140 140" xml:space="preserve">
<g enable-background="new    ">
	<path fill="#FFFFFF" stroke="#FFFFFF" stroke-width="0.1816" stroke-miterlimit="10" d="M48.038,49.665
		c1.116,0,1.736-0.683,1.736-1.676h0.187v9.865h-0.187c-1.052-5.212-3.783-9.555-9.924-9.555c-5.087,0-7.257,2.853-7.257,6.328
		c0,9.802,18.3,6.205,18.3,17.059c0,5.338-4.963,9.123-11.353,9.123c-6.638,0-11.105-4.095-11.105-7.941
		c0-2.047,1.365-3.537,3.165-3.537c1.984,0,3.288,1.427,3.288,3.165c0,2.046-1.552,3.164-3.102,3.164
		c-0.993,0-1.675-0.495-1.861-0.495c-0.186,0-0.311,0.123-0.311,0.309c0,1.304,3.537,5.027,9.554,5.027
		c4.963,0,8.003-2.855,8.003-6.453c0-9.74-18.3-6.204-18.3-17.061c0-5.398,4.28-8.996,10.981-8.996
		C44.564,47.989,45.618,49.665,48.038,49.665z"/>
	<path fill="#FFFFFF" stroke="#FFFFFF" stroke-width="0.1816" stroke-miterlimit="10" d="M62.99,80.001h3.847v0.187H54.306v-0.187
		h3.908V48.92h-3.908v-0.187h8.685L62.99,80.001L62.99,80.001z M60.447,42.778c-1.737,0-2.978-1.303-2.978-3.103
		c0-1.861,1.365-3.226,2.978-3.226c1.799,0,3.04,1.302,3.04,3.164C63.487,41.414,62.122,42.778,60.447,42.778z"/>
	<path fill="#FFFFFF" stroke="#FFFFFF" stroke-width="0.1816" stroke-miterlimit="10" d="M71.18,48.733v-6.451l4.716-2.357v8.809
		h10.235v0.187H75.896V72c0,4.593,1.86,6.948,5.831,6.948c2.297,0,4.527-1.612,4.839-3.972h0.187
		c-0.312,2.916-3.537,5.833-7.445,5.833c-5.644,0-8.125-3.724-8.125-9.368V48.92h-4.034v-0.187H71.18z"/>
	<path fill="#FFFFFF" stroke="#FFFFFF" stroke-width="0.1816" stroke-miterlimit="10" d="M110.947,75.223
		c0-0.185-0.124-0.311-0.312-0.311c-0.186,0-0.866,0.496-1.86,0.496c-1.552,0-3.102-1.115-3.102-3.164
		c0-1.736,1.302-3.164,3.287-3.164c1.799,0,3.164,1.49,3.164,3.537c0,3.723-4.032,8.191-10.67,8.191
		c-8.313,0-14.392-7.26-14.392-16.318c0-9.058,5.955-16.563,14.203-16.563c6.27,0,10.735,3.288,10.735,8.127
		c0,10.981-18.798,6.327-18.798,16.502c0,4.28,3.475,7.939,9.183,7.939C107.846,80.498,110.947,76.527,110.947,75.223z
		 M92.211,64.802c0,2.419,0.188,4.28,0.622,6.141c1.736-6.452,14.144-5.459,14.144-14.827c0-4.591-2.047-8.003-5.709-8.003
		C95.438,48.113,92.211,55.744,92.211,64.802z"/>
</g>
<g enable-background="new    ">
	<path fill="#FFFFFF" stroke="#FFFFFF" stroke-width="0.2025" stroke-miterlimit="10" d="M31.565,97.018
		c0-0.078-0.052-0.131-0.131-0.131s-0.367,0.209-0.787,0.209c-0.656,0-1.313-0.471-1.313-1.34c0-0.732,0.552-1.339,1.392-1.339
		c0.761,0,1.339,0.631,1.339,1.497c0,1.576-1.706,3.467-4.517,3.467c-3.519,0-6.092-3.072-6.092-6.906s2.521-7.012,6.014-7.012
		c2.652,0,4.543,1.393,4.543,3.439c0,4.65-7.958,2.68-7.958,6.986c0,1.812,1.471,3.362,3.887,3.362
		C30.252,99.251,31.565,97.57,31.565,97.018z M23.634,92.606c0,1.025,0.079,1.811,0.263,2.603c0.735-2.732,5.988-2.312,5.988-6.278
		c0-1.944-0.867-3.39-2.417-3.39C25,85.541,23.634,88.772,23.634,92.606z"/>
	<path fill="#FFFFFF" stroke="#FFFFFF" stroke-width="0.2025" stroke-miterlimit="10" d="M45.091,97.28
		c0,0.841,0.524,1.233,1.129,1.233c0.577,0,1.102-0.498,1.155-1.233h0.078c-0.053,0.763-0.709,2.101-2.258,2.101
		c-1.366,0-2.154-1.076-2.154-2.914v-7.8c0-1.759-0.998-2.729-2.6-2.729c-1.996,0-3.256,1.863-3.256,3.65v9.453h1.628v0.079h-5.304
		v-0.079h1.654V85.884h-1.654v-0.077h3.676v2.521c0.473-1.288,1.917-2.785,4.071-2.785c2.6,0,3.834,1.969,3.834,4.99L45.091,97.28
		L45.091,97.28z"/>
	<path fill="#FFFFFF" stroke="#FFFFFF" stroke-width="0.2025" stroke-miterlimit="10" d="M65.892,95.941h0.105
		c-0.21,1.996-1.812,3.439-4.465,3.439c-3.492,0-5.934-3.072-5.934-6.906s2.679-7.012,6.197-7.012c2.836,0,4.123,1.707,4.123,3.283
		c0,0.867-0.578,1.575-1.339,1.575c-0.841,0-1.393-0.604-1.393-1.338c0-0.868,0.656-1.341,1.313-1.341
		c0.42,0,0.708,0.211,0.788,0.211c0.079,0,0.131-0.054,0.131-0.133c0-0.551-0.919-2.127-3.23-2.127
		c-2.731,0-4.412,2.573-4.412,6.749c0,3.833,1.838,6.67,4.674,6.67C64.106,99.014,65.655,97.885,65.892,95.941z"/>
	<path fill="#FFFFFF" stroke="#FFFFFF" stroke-width="0.2025" stroke-miterlimit="10" d="M73.51,99.356
		c-3.492,0-6.066-3.019-6.066-6.854c0-3.859,2.811-6.984,6.199-6.984c3.491,0,6.064,2.993,6.064,6.826
		C79.707,96.205,76.896,99.356,73.51,99.356z M73.643,85.621c-2.733,0-4.02,2.89-4.02,6.75c0,3.834,1.287,6.88,3.887,6.88
		c2.732,0,4.018-2.913,4.018-6.774C77.527,88.641,76.242,85.621,73.643,85.621z"/>
	<path fill="#FFFFFF" stroke="#FFFFFF" stroke-width="0.2025" stroke-miterlimit="10" d="M86.693,99.381
		c-2.6,0-3.834-1.969-3.834-4.988v-6.75c0-0.84-0.525-1.233-1.128-1.233c-0.579,0-1.104,0.499-1.155,1.233h-0.08
		c0.053-0.762,0.709-2.102,2.258-2.102c1.366,0,2.156,1.078,2.156,2.917v7.798c0,1.76,0.995,2.731,2.6,2.731
		c1.996,0,3.255-1.733,3.255-3.519v-9.586h-1.628v-0.078h3.623V97.28c0,0.841,0.525,1.233,1.129,1.233
		c0.578,0,1.104-0.498,1.156-1.233h0.079c-0.053,0.763-0.709,2.101-2.259,2.101c-1.182,0-1.971-1.049-2.102-2.652
		C90.29,98.016,88.849,99.381,86.693,99.381z"/>
	<path fill="#FFFFFF" stroke="#FFFFFF" stroke-width="0.2025" stroke-miterlimit="10" d="M99.459,90.847v8.194h1.629v0.078h-5.307
		v-0.078h1.656V85.883h-1.656v-0.078h3.678v3.23c0.501-1.262,1.629-3.441,3.965-3.441c1.969,0,2.889,1.34,2.889,2.732
		c0,0.945-0.629,1.602-1.471,1.602c-0.788,0-1.418-0.578-1.418-1.417c0-0.896,0.683-1.392,1.391-1.392
		c0.316,0,0.578,0.104,0.658,0.104c0.078,0,0.131-0.08,0.131-0.158c0-0.445-0.631-1.391-2.18-1.391
		C101.113,85.674,99.459,88.063,99.459,90.847z"/>
	<path fill="#FFFFFF" stroke="#FFFFFF" stroke-width="0.2025" stroke-miterlimit="10" d="M115.926,86.199
		c0.471,0,0.732-0.289,0.732-0.711h0.079v4.178h-0.079c-0.445-2.207-1.599-4.045-4.2-4.045c-2.155,0-3.073,1.207-3.073,2.679
		c0,4.148,7.746,2.626,7.746,7.222c0,2.258-2.102,3.859-4.807,3.859c-2.809,0-4.701-1.732-4.701-3.361
		c0-0.866,0.579-1.496,1.34-1.496c0.841,0,1.393,0.604,1.393,1.34c0,0.865-0.657,1.338-1.312,1.338
		c-0.422,0-0.711-0.209-0.789-0.209c-0.079,0-0.131,0.055-0.131,0.132c0,0.552,1.496,2.127,4.043,2.127
		c2.101,0,3.387-1.208,3.387-2.729c0-4.125-7.746-2.629-7.746-7.222c0-2.285,1.812-3.808,4.649-3.808
		C114.455,85.488,114.901,86.199,115.926,86.199z"/>
</g>
</svg>
