<?xml version="1.0" encoding="utf-8"?>
<!-- Generator: Adobe Illustrator 15.0.0, SVG Export Plug-In . SVG Version: 6.00 Build 0)  -->
<!DOCTYPE svg PUBLIC "-//W3C//DTD SVG 1.1//EN" "http://www.w3.org/Graphics/SVG/1.1/DTD/svg11.dtd">
<svg version="1.1" id="Layer_1" xmlns="http://www.w3.org/2000/svg" xmlns:xlink="http://www.w3.org/1999/xlink" x="0px" y="0px"
	 width="140px" height="140px" viewBox="0 0 140 140" enable-background="new 0 0 140 140" xml:space="preserve">
<text transform="matrix(1 0 0 1 -220.3525 28.5205)" font-family="'Voyage'" font-size="62.9143">iden</text>
<text transform="matrix(1 0 0 1 -220.3525 88.918)" font-family="'Voyage'" font-size="88.08">tité</text>
<text transform="matrix(1 0 0 1 -343.3594 34.1475)" font-family="'Voyage'" font-size="71.3015">édit</text>
<text transform="matrix(1 0 0 1 -343.3594 88.5957)" font-family="'Voyage'" font-size="82.9474">ion</text>
<text transform="matrix(1 0 0 1 -594.624 53.4707)" font-family="'Voyage'" font-size="110.2164">site</text>
<text transform="matrix(1 0 0 1 -594.624 89.0244)" font-family="'Voyage'" font-size="45.0347">en cours </text>
<text transform="matrix(1 0 0 1 -461.1016 20.8691)" font-family="'Voyage'" font-size="67.1178">mon</text>
<text transform="matrix(1 0 0 1 -461.1016 89.2305)" font-family="'Voyage'" font-size="123.0493">cv</text>
<text transform="matrix(1 0 0 1 -112.8633 38.3525)" font-family="'Voyage'" font-size="77.2834">web</text>
<text transform="matrix(1 0 0 1 -112.8633 78.0107)" font-family="'Voyage'" font-size="50.8444">design</text>
<g>
	<path fill="#FFFFFF" d="M61.485,54.101c1.546,0,3.277-0.743,5.07-2.474c1.793-1.668,2.351-1.917,1.917-0.866
		c-0.124,0.31-0.804,1.237-1.855,2.289c-1.793,1.668-3.834,2.287-5.75,2.102c-2.783,4.389-6.307,7.852-10.017,10.634
		c-4.699,3.462-8.594,3.4-8.161-3.586c-1.298,1.298-2.72,2.474-4.143,3.586c-5.75,4.267-9.583,3.215-6.368-9.646
		c0.68-2.844,2.103-8.656,3.277-13.231c2.04-7.976,4.267-7.543,6.678-6.183c0.433,0.309,0.742,0.495,0.742,0.495
		c-0.433,1.484-3.215,11.562-5.998,22.938c-1.361,5.502-0.618,5.935,1.421,4.514c2.288-1.545,3.896-5.193,6.368-12.489
		c0.495-2.226,1.113-4.761,1.854-7.482c2.041-8.037,4.267-7.604,6.616-6.183c0.494,0.248,0.741,0.433,0.741,0.433
		c-0.371,1.545-2.658,9.83-5.44,21.207c-1.36,5.502,0.124,5.935,2.164,4.514c2.164-1.484,4.142-4.761,6.554-11.191
		c-0.743-0.619-1.36-1.422-1.855-2.35c-2.658-5.07,0.124-13.85,5.008-15.024c4.947-1.237,6.74,2.164,4.884,9.027
		C64.268,48.536,63.031,51.504,61.485,54.101z M57.591,52.307c0.37-0.927,0.741-1.979,1.113-3.091
		c2.844-8.78,2.782-12.057,1.236-11.686c-2.906,0.618-5.812,8.903-3.524,13.107C56.726,51.257,57.158,51.813,57.591,52.307z"/>
	<path fill="#FFFFFF" d="M70.203,57.935c-0.31,7.049,3.215,10.017,6.677,8.409c2.782-1.36,5.379-4.267,8.595-11.5
		c1.05-2.226,1.422-2.658,1.422-1.484c0,0.372-0.248,1.423-0.865,2.783c-2.846,6.307-5.194,9.893-9.584,11.872
		c-7.419,3.338-14.531-1.731-10.696-16.261C69.707,36.665,82.568,34.934,84.918,39.2C87.267,43.528,78.486,52.802,70.203,57.935z
		 M70.388,56.388c7.79-5.07,11.004-13.912,9.769-16.694c-1.422-3.153-5.565,0.062-8.903,12.366
		C70.82,53.668,70.512,55.028,70.388,56.388z"/>
	<path fill="#FFFFFF" d="M92.83,25.906c0,0,0.186,0,0.434-0.062c4.266-0.619,5.502,1.67,3.523,8.965
		c-0.371,1.299-0.742,2.906-1.236,4.761c-0.371,1.36-0.805,2.72-1.176,4.143c1.051-1.793,2.227-3.462,3.463-4.576
		c4.822-4.328,10.635-1.855,6.307,12.675c-2.287,7.604-7.482,12.428-11.5,14.901c-5.564,3.462-10.387,2.905-7.172-10.326
		c0.865-3.463,3.771-14.283,4.883-18.857C92.583,28.751,92.83,25.906,92.83,25.906z M91.47,55.152
		c-0.493,1.855-0.927,3.648-1.298,5.255c-1.422,5.874,0.618,6.307,2.227,5.194c2.164-1.422,4.142-6.184,6.244-14.159
		c2.968-10.882,1.854-13.417-0.434-11.253c-2.596,2.474-4.885,7.358-6.367,13.479L91.47,55.152z"/>
	<path fill="#FFFFFF" d="M41.449,80.422l0.163-0.65c1.465-5.775,1.627-7.646,1.627-7.646s0.082,0,0.284-0.041
		c2.806-0.406,3.579,1.099,2.318,5.898c-0.244,0.854-0.529,1.912-0.814,3.133c-0.529,2.113-3.05,11.633-3.538,13.705
		c-0.814,3.62,0.488,3.702,1.383,2.318c1.057-1.625,1.586-2.887,2.888-5.979c0.65-1.464,0.935-1.749,0.935-0.976
		c0,0.244-0.203,0.936-0.569,1.83c-1.138,2.766-1.585,3.742-2.847,5.736c-1.993,3.213-5.288,3.09-5.41-1.466
		c-0.447,1.099-0.895,1.953-1.383,2.562c-2.766,3.458-7.484-0.122-4.962-9.72C33.925,79.975,39.293,78.43,41.449,80.422z
		 M38.562,91.445l2.644-10.17c-1.464-2.236-4.026,0.447-6.101,8.053c-1.952,7.322-0.325,10.576,1.017,8.867
		c0.732-0.936,1.585-3.131,2.359-6.385L38.562,91.445z"/>
	<path fill="#FFFFFF" d="M48.73,93.193c-0.203,4.638,2.115,6.59,4.393,5.531c1.831-0.894,3.539-2.807,5.654-7.565
		c0.691-1.464,0.935-1.749,0.935-0.976c0,0.244-0.163,0.936-0.569,1.83c-1.871,4.148-3.417,6.508-6.305,7.81
		c-4.881,2.196-9.559-1.14-7.037-10.696c2.603-9.926,11.063-11.063,12.608-8.258C59.957,83.717,54.181,89.816,48.73,93.193z
		 M48.853,92.176c5.125-3.334,7.24-9.15,6.426-10.981c-0.936-2.075-3.661,0.041-5.857,8.134
		C49.138,90.387,48.934,91.283,48.853,92.176z"/>
	<path fill="#FFFFFF" d="M68.092,90.225c0.244,0.935,0.366,1.992,0.366,3.131c0.041,6.143-5.734,8.461-8.663,6.346
		c-2.074-1.545-1.505-4.596,0.692-6.67c0.936-0.855,2.359-1.708,4.066-2.4c-0.528-2.277-1.545-4.311-2.521-5.815
		c-0.813,2.194-1.667,4.392-2.358,6.06c-0.163,0.448-0.854,2.034-1.017,1.585c-0.203-0.487,0.041-1.056,0.244-1.585
		c0.732-2.074,1.749-4.596,2.562-6.996c-0.082-0.081-0.164-0.162-0.203-0.283c-1.586-2.238-1.343-3.986-0.57-5.084
		c1.261-1.791,3.904-0.977,3.904-0.977c-0.082,0.203-0.366,1.18-0.895,2.643l-0.65,1.914c0,0,0,0.041,0.041,0.041
		c2.116,2.398,3.945,4.594,4.84,7.482c1.099-0.284,2.196-0.447,3.335-0.568c1.586-0.162,1.992-0.041,1.301,0.324
		c-0.203,0.121-0.894,0.284-1.871,0.366C69.799,89.816,68.905,89.98,68.092,90.225z M64.716,91.445
		c-1.505,0.69-2.767,1.504-3.579,2.276c-1.75,1.71-1.952,3.987-0.692,5.003c1.423,1.139,4.108,0.041,4.434-4.27
		C64.96,93.438,64.878,92.42,64.716,91.445z"/>
	<path fill="#FFFFFF" d="M71.509,87.051c1.22-4.798,2.888-4.717,4.148-3.863c0.366,0.246,0.61,0.449,0.61,0.449
		c-0.082,0.324-1.789,6.385-2.969,11.184c-0.895,3.62,0.488,3.701,1.383,2.318c1.058-1.627,1.586-2.887,2.889-5.98
		c0.649-1.464,0.935-1.749,0.935-0.975c0,0.244-0.204,0.934-0.569,1.83c-1.139,2.766-1.586,3.742-2.848,5.735
		c-2.441,3.985-6.996,2.887-4.881-5.574C70.492,91.078,71.021,88.883,71.509,87.051z M74.396,80.91
		c-1.424-0.488-2.034-1.83-1.384-2.889c0.651-1.098,2.359-1.545,3.784-1.057c1.383,0.488,2.032,1.83,1.342,2.929
		C77.486,80.992,75.779,81.398,74.396,80.91z"/>
	<path fill="#FFFFFF" d="M87.371,80.543c1.018-2.033,2.115-1.789,3.418-1.098c0.243,0.162,0.447,0.285,0.447,0.285l-1.099,3.986
		c-0.772,2.806-2.114,8.255-4.067,15.537c-3.172,11.754-9.437,11.104-11.062,8.459c-0.977-1.586-0.57-3.823,0.649-5.287
		c1.058-1.26,2.685-1.668,3.457-0.609c1.017,1.301-0.121,2.928-1.384,2.644c-1.992-0.407-2.969,1.343-2.033,2.766
		c1.262,1.992,4.312,0.407,6.752-8.175l0.203-0.814c-0.121,0.244-0.284,0.447-0.406,0.609c-2.725,3.457-7.484-0.121-4.963-9.721
		C79.766,79.771,85.297,78.389,87.371,80.543z M87.005,81.316v-0.041c-1.423-2.277-4.026,0.407-6.101,8.053
		c-1.993,7.322-0.367,10.576,1.018,8.867c0.73-0.936,1.584-3.131,2.357-6.385l0.245-0.977l1.829-7.32
		C86.557,82.659,86.801,81.926,87.005,81.316z"/>
	<path fill="#FFFFFF" d="M91.479,100.516c-2.072-0.203-2.969-0.936-1.586-6.63c1.14-4.759,1.344-5.817,1.832-7.687
		c1.464-5.777,1.627-7.648,1.627-7.648s0.08,0,0.283-0.041c2.359-0.365,3.58,1.018,2.279,5.857c0,0.04-0.042,0.081-0.042,0.121
		c0.813-1.465,1.749-2.766,2.726-3.66c3.172-2.848,6.549-1.383,3.904,8.339c-0.854,3.009-0.977,3.499-1.465,5.652
		c-0.854,3.62,0.448,3.702,1.343,2.317c1.058-1.625,1.587-2.887,2.888-5.979c0.609-1.465,0.936-1.749,0.936-0.976
		c0,0.243-0.203,0.935-0.569,1.829c-1.14,2.766-1.586,3.742-2.847,5.736c-2.441,3.986-6.916,3.334-4.842-5.125l0.936-3.701
		c1.953-7.159,1.465-8.826-0.04-7.403c-1.585,1.505-3.173,4.312-4.188,7.851l-0.245,1.016l-0.245,0.896
		c-0.935,3.618-2.154,8.581-2.317,9.273C91.846,100.557,91.684,100.557,91.479,100.516z"/>
</g>
</svg>
