<?xml version="1.0" encoding="utf-8"?>
<!-- Generator: Adobe Illustrator 15.0.0, SVG Export Plug-In . SVG Version: 6.00 Build 0)  -->
<!DOCTYPE svg PUBLIC "-//W3C//DTD SVG 1.1//EN" "http://www.w3.org/Graphics/SVG/1.1/DTD/svg11.dtd">
<svg version="1.1" id="Layer_1" xmlns="http://www.w3.org/2000/svg" xmlns:xlink="http://www.w3.org/1999/xlink" x="0px" y="0px"
	 width="140px" height="140px" viewBox="0 0 140 140" enable-background="new 0 0 140 140" xml:space="preserve">
<text transform="matrix(1 0 0 1 -220.3525 28.5205)" font-family="'Voyage'" font-size="62.9143">iden</text>
<text transform="matrix(1 0 0 1 -220.3525 88.918)" font-family="'Voyage'" font-size="88.08">tité</text>
<text transform="matrix(1 0 0 1 -343.3594 34.1475)" font-family="'Voyage'" font-size="71.3015">édit</text>
<text transform="matrix(1 0 0 1 -343.3594 88.5957)" font-family="'Voyage'" font-size="82.9474">ion</text>
<text transform="matrix(1 0 0 1 -594.624 53.4707)" font-family="'Voyage'" font-size="110.2164">site</text>
<text transform="matrix(1 0 0 1 -594.624 89.0244)" font-family="'Voyage'" font-size="45.0347">en cours </text>
<text transform="matrix(1 0 0 1 -461.1016 20.8691)" font-family="'Voyage'" font-size="67.1178">mon</text>
<text transform="matrix(1 0 0 1 -461.1016 89.2305)" font-family="'Voyage'" font-size="123.0493">cv</text>
<g enable-background="new    ">
	<path fill="#FFFFFF" stroke="#FFFFFF" stroke-width="0.2084" stroke-miterlimit="10" d="M56.794,49.526v-0.139h7.887v0.139h-0.186
		c-2.181,0-3.386,2.367-4.268,5.104l-5.8,18.279H52.71l-5.336-16.516l-5.613,16.516h-1.715l-7.655-23.382h-2.599v-0.139h9.372v0.139
		h-3.062l6.495,20.368l4.687-13.826l-2.088-6.541h-2.599v-0.14h9.188v0.14h-3.062l6.495,20.228l4.825-15.171
		c1.021-2.737,0.372-5.056-2.923-5.056h-0.326V49.526z"/>
	<path fill="#FFFFFF" stroke="#FFFFFF" stroke-width="0.2084" stroke-miterlimit="10" d="M81.383,69.198
		c0-0.14-0.094-0.232-0.233-0.232c-0.138,0-0.649,0.372-1.39,0.372c-1.162,0-2.322-0.834-2.322-2.366
		c0-1.299,0.975-2.366,2.459-2.366c1.346,0,2.367,1.113,2.367,2.644c0,2.784-3.016,6.124-7.98,6.124
		c-6.217,0-10.763-5.427-10.763-12.202c0-6.773,4.454-12.388,10.624-12.388c4.687,0,8.027,2.459,8.027,6.078
		c0,8.212-14.059,4.732-14.059,12.342c0,3.201,2.598,5.938,6.865,5.938C79.062,73.141,81.383,70.172,81.383,69.198z M67.37,61.404
		c0,1.809,0.14,3.202,0.464,4.593c1.299-4.825,10.578-4.083,10.578-11.088c0-3.434-1.53-5.985-4.27-5.985
		C69.783,48.923,67.37,54.63,67.37,61.404z"/>
	<path fill="#FFFFFF" stroke="#FFFFFF" stroke-width="0.2084" stroke-miterlimit="10" d="M84.117,40.572v-0.14h6.447v12.479
		c1.068-2.319,3.434-4.129,6.773-4.129c6.172,0,10.068,5.243,10.068,12.017c0,6.821-4.731,12.481-10.717,12.481
		c-4.732,0-6.029-3.063-8.118-3.063c-1.298,0-1.717,0.975-2.646,4.175h-0.231c0.743-2.552,1.44-4.036,1.44-6.726V40.572H84.117z
		 M90.564,55.372v11.785c0,3.943,2.414,5.848,5.66,5.848c4.827,0,7.331-5.151,7.331-11.97c0-6.773-2.597-11.553-7.19-11.553
		C92.885,49.479,90.564,51.707,90.564,55.372z"/>
</g>
<g enable-background="new    ">
	<path fill="#FFFFFF" stroke="#FFFFFF" stroke-width="0.225" stroke-miterlimit="10" d="M23.842,91.635
		c0-4.842,3.196-8.928,7.446-8.928c2.174,0,3.788,1.153,4.514,2.702v-8.533H33.66v-0.097h4.58v20.756c0,1.055,0.659,1.55,1.417,1.55
		c0.725,0,1.383-0.626,1.449-1.55h0.099c-0.066,0.955-0.889,2.637-2.833,2.637c-1.482,0-2.373-1.021-2.569-2.965
		c-0.725,1.646-2.438,2.965-4.81,2.965C26.609,100.168,23.842,96.445,23.842,91.635z M35.802,95.49v-8.368
		c0-2.536-1.647-4.053-3.954-4.053c-3.426,0-5.271,3.559-5.271,8.401c0,4.811,1.845,8.235,5.106,8.235
		C34.154,99.708,35.802,98.093,35.802,95.49z"/>
	<path fill="#FFFFFF" stroke="#FFFFFF" stroke-width="0.225" stroke-miterlimit="10" d="M54.878,97.203
		c0-0.099-0.066-0.166-0.165-0.166c-0.099,0-0.461,0.264-0.988,0.264c-0.824,0-1.647-0.592-1.647-1.68
		c0-0.922,0.692-1.681,1.746-1.681c0.956,0,1.68,0.792,1.68,1.88c0,1.975-2.141,4.348-5.666,4.348c-4.415,0-7.643-3.854-7.643-8.666
		c0-4.809,3.163-8.795,7.544-8.795c3.327,0,5.7,1.746,5.7,4.316c0,5.831-9.982,3.36-9.982,8.763c0,2.272,1.845,4.218,4.875,4.218
		C53.23,100.004,54.878,97.895,54.878,97.203z M44.928,91.668c0,1.287,0.099,2.272,0.33,3.262c0.922-3.428,7.511-2.9,7.511-7.873
		c0-2.438-1.087-4.25-3.031-4.25C46.641,82.807,44.928,86.858,44.928,91.668z"/>
	<path fill="#FFFFFF" stroke="#FFFFFF" stroke-width="0.225" stroke-miterlimit="10" d="M68.55,83.629
		c0.593,0,0.923-0.361,0.923-0.889h0.099v5.238h-0.099c-0.56-2.768-2.01-5.073-5.271-5.073c-2.701,0-3.854,1.515-3.854,3.358
		c0,5.205,9.719,3.295,9.719,9.059c0,2.832-2.637,4.843-6.029,4.843c-3.525,0-5.897-2.175-5.897-4.217
		c0-1.087,0.725-1.878,1.681-1.878c1.054,0,1.746,0.758,1.746,1.68c0,1.088-0.825,1.68-1.648,1.68c-0.527,0-0.89-0.264-0.988-0.264
		c-0.099,0-0.165,0.066-0.165,0.166c0,0.691,1.877,2.668,5.074,2.668c2.636,0,4.25-1.516,4.25-3.426
		c0-5.173-9.718-3.295-9.718-9.061c0-2.865,2.272-4.776,5.831-4.776C66.707,82.74,67.267,83.629,68.55,83.629z"/>
	<path fill="#FFFFFF" stroke="#FFFFFF" stroke-width="0.225" stroke-miterlimit="10" d="M76.491,99.741h2.044v0.098h-6.656v-0.098
		h2.076V83.234h-2.076v-0.1h4.612V99.741z M75.141,79.973c-0.923,0-1.582-0.692-1.582-1.646c0-0.988,0.725-1.713,1.582-1.713
		c0.956,0,1.614,0.693,1.614,1.68C76.755,79.248,76.029,79.973,75.141,79.973z"/>
	<path fill="#FFFFFF" stroke="#FFFFFF" stroke-width="0.225" stroke-miterlimit="10" d="M86.639,93.482
		c-1.285,0-1.975-0.232-2.799-0.232c-1.416,0-2.801,0.758-2.801,2.404c0,1.187,0.824,2.109,2.241,2.109
		c2.272,0,3.954-2.998,7.247-2.998c2.868,0,4.052,1.879,4.052,3.822c0,3.46-3.132,6.062-8.104,6.062c-4.612,0-6.62-2.503-6.62-4.481
		c0-1.088,0.725-1.977,1.68-1.977c1.053,0,1.745,0.758,1.745,1.68c0,1.088-0.825,1.681-1.647,1.681c-0.527,0-0.891-0.264-0.99-0.264
		c-0.098,0-0.166,0.065-0.166,0.165c0,0.856,1.648,2.933,5.34,2.933c3.853,0,6.191-2.34,6.191-5.306
		c0-2.043-1.055-3.195-3.129-3.195c-2.24,0-3.525,1.976-5.601,1.976c-1.517,0-2.372-0.956-2.372-2.206
		c0-1.613,1.416-2.503,2.963-2.767c-1.941-0.824-3.162-2.604-3.162-4.711c0-3.031,2.569-5.403,6.129-5.403
		c1.285,0,1.812,0.264,3.029,0.264c1.416,0,2.833-0.824,2.833-1.846c0-0.099-0.063-0.166-0.166-0.166
		c-0.098,0-0.46,0.264-0.987,0.264c-0.824,0-1.647-0.559-1.647-1.646c0-0.921,0.692-1.646,1.745-1.646
		c0.955,0,1.812,0.691,1.812,1.779c0,1.779-1.449,3.359-3.953,3.492c2.044,0.823,3.262,2.604,3.262,4.777
		C92.766,91.075,90.196,93.482,86.639,93.482z M86.836,82.873c-2.669,0-3.591,2.238-3.591,5.205c0,2.932,0.922,5.305,3.394,5.305
		c2.668,0,3.591-2.273,3.591-5.238C90.229,85.211,89.307,82.873,86.836,82.873z"/>
	<path fill="#FFFFFF" stroke="#FFFFFF" stroke-width="0.225" stroke-miterlimit="10" d="M110.393,97.533
		c0,1.055,0.658,1.55,1.416,1.55c0.725,0,1.383-0.626,1.45-1.55h0.097c-0.066,0.957-0.89,2.637-2.832,2.637
		c-1.712,0-2.701-1.351-2.701-3.656v-9.787c0-2.206-1.253-3.426-3.262-3.426c-2.504,0-4.084,2.34-4.084,4.579v11.861h2.042v0.098
		h-6.655v-0.098h2.076V83.234h-2.076v-0.1h4.613v3.166c0.591-1.615,2.404-3.492,5.105-3.492c3.262,0,4.811,2.47,4.811,6.258V97.533
		L110.393,97.533z"/>
</g>
</svg>
